<?xml version="1.0" encoding="utf-8"?>
<!-- Generator: Adobe Illustrator 16.0.0, SVG Export Plug-In . SVG Version: 6.00 Build 0)  -->
<!DOCTYPE svg PUBLIC "-//W3C//DTD SVG 1.1//EN" "http://www.w3.org/Graphics/SVG/1.1/DTD/svg11.dtd">
<svg version="1.1" id="Layer_1" xmlns="http://www.w3.org/2000/svg" xmlns:xlink="http://www.w3.org/1999/xlink" x="0px" y="0px"
	 width="39.67px" height="79.5px" viewBox="0 0 39.67 79.5" enable-background="new 0 0 39.67 79.5" xml:space="preserve">
<g>
	
		<path fill-rule="evenodd" clip-rule="evenodd" fill="none" stroke="#FF6600" stroke-width="4" stroke-linecap="round" stroke-linejoin="round" stroke-miterlimit="3" d="
		M25.33,4.32c-1.4,0.37-2.73,1.28-4,2.75c-1.43,1.77-2.77,4.23-4,7.4c-2.7,6.93-4.05,15.38-4.05,25.35c0,9.83,1.8,18.28,5.4,25.35
		c3.57,6.97,7.9,10.45,13,10.45 M35.28,3.87c-3.07,0.5-5.73,2.6-8,6.3c-2.7,4.4-4.05,9.67-4.05,15.8 M4.53,23.12
		c-1.23,14.4,0.28,26.7,4.55,36.9c4.23,10.3,9.35,15.45,15.35,15.45"/>
</g>
</svg>
