<?xml version="1.0" encoding="utf-8"?>
<!-- Generator: Adobe Illustrator 16.0.0, SVG Export Plug-In . SVG Version: 6.00 Build 0)  -->
<!DOCTYPE svg PUBLIC "-//W3C//DTD SVG 1.1//EN" "http://www.w3.org/Graphics/SVG/1.1/DTD/svg11.dtd">
<svg version="1.1" id="Layer_1" xmlns="http://www.w3.org/2000/svg" xmlns:xlink="http://www.w3.org/1999/xlink" x="0px" y="0px"
	 width="338.67px" height="183.33px" viewBox="0 0 338.67 183.33" enable-background="new 0 0 338.67 183.33" xml:space="preserve">
<g>
	<g>
		<g>
			
				<polygon fill-rule="evenodd" clip-rule="evenodd" fill="none" stroke="#FF0000" stroke-linecap="round" stroke-linejoin="round" stroke-miterlimit="3" points="
				334.13,178.52 47.58,178.52 47.58,103.37 47.58,28.47 334.13,28.47 334.13,103.37 			"/>
			
				<line fill-rule="evenodd" clip-rule="evenodd" fill="none" stroke="#FF9797" stroke-linecap="round" stroke-linejoin="round" stroke-miterlimit="3" x1="47.58" y1="103.37" x2="334.13" y2="103.37"/>
		</g>
	</g>
	<g>
		<rect x="34.93" y="143.92" fill-rule="evenodd" clip-rule="evenodd" width="7.45" height="1.85"/>
	</g>
	<g>
		<polygon fill-rule="evenodd" clip-rule="evenodd" points="38.18,52.87 38.18,56.97 42.28,56.97 42.28,58.67 38.18,58.67 
			38.18,62.77 36.43,62.77 36.43,58.67 32.33,58.67 32.33,56.97 36.43,56.97 36.43,52.87 		"/>
	</g>
	<g>
		<path fill-rule="evenodd" clip-rule="evenodd" d="M40.83,98.07c-0.4-0.6-0.92-0.9-1.55-0.9c-0.6,0-1.08,0.27-1.45,0.8
			c-0.43,0.63-0.65,1.83-0.65,3.6s0.2,2.95,0.6,3.55c0.4,0.57,0.9,0.85,1.5,0.85c0.63,0,1.15-0.3,1.55-0.9
			c0.4-0.57,0.6-1.73,0.6-3.5S41.23,98.63,40.83,98.07z M41.88,97.42c0.3,0.47,0.53,1,0.7,1.6c0.13,0.63,0.2,1.48,0.2,2.55
			c0,1.27-0.12,2.28-0.35,3.05c-0.27,0.77-0.65,1.37-1.15,1.8c-0.53,0.43-1.2,0.65-2,0.65c-1.03,0-1.83-0.38-2.4-1.15
			c-0.73-0.87-1.1-2.32-1.1-4.35c0-1.27,0.13-2.28,0.4-3.05s0.67-1.37,1.2-1.8c0.5-0.43,1.13-0.65,1.9-0.65
			c0.6,0,1.12,0.12,1.55,0.35S41.62,96.98,41.88,97.42z M29.53,96.57c-0.4,0-0.68,0.08-0.85,0.25c-0.17,0.17-0.25,0.48-0.25,0.95
			v0.7h1.55v1.05h-1.55v6.75h-1.3v-6.75h-1.15v-1.05h1.15v-0.8c0-0.53,0.05-0.92,0.15-1.15c0.13-0.37,0.35-0.65,0.65-0.85
			c0.33-0.2,0.78-0.3,1.35-0.3c0.37,0,0.78,0.03,1.25,0.1l-0.2,1.15C30.07,96.58,29.8,96.57,29.53,96.57z M6.98,101.62h4.35
			c-0.07-0.63-0.23-1.12-0.5-1.45c-0.43-0.5-0.98-0.75-1.65-0.75c-0.6,0-1.12,0.2-1.55,0.6C7.23,100.42,7.02,100.95,6.98,101.62z
			 M7.63,104.67c0.43,0.47,0.97,0.7,1.6,0.7c0.5,0,0.92-0.13,1.25-0.4c0.33-0.23,0.6-0.63,0.8-1.2l1.4,0.15
			c-0.23,0.8-0.63,1.42-1.2,1.85c-0.6,0.47-1.35,0.7-2.25,0.7c-1.13,0-2.03-0.35-2.7-1.05c-0.67-0.73-1-1.72-1-2.95
			c0-1.33,0.33-2.35,1-3.05c0.67-0.73,1.55-1.1,2.65-1.1c1.03,0,1.88,0.35,2.55,1.05c0.63,0.7,0.95,1.7,0.95,3c0,0.07,0,0.18,0,0.35
			h-5.8C6.95,103.58,7.2,104.23,7.63,104.67z M20.28,101.77v4.5h-1.35v-5.05c0-0.6-0.1-1.03-0.3-1.3c-0.23-0.3-0.58-0.45-1.05-0.45
			c-0.37,0-0.72,0.1-1.05,0.3c-0.3,0.17-0.53,0.45-0.7,0.85c-0.13,0.37-0.2,0.9-0.2,1.6v4.05h-1.3v-7.8h1.15v1.1
			c0.27-0.37,0.6-0.67,1-0.9s0.87-0.35,1.4-0.35c0.57,0,1.03,0.12,1.4,0.35s0.62,0.57,0.75,1c0.63-0.9,1.45-1.35,2.45-1.35
			c0.77,0,1.35,0.22,1.75,0.65c0.43,0.43,0.65,1.08,0.65,1.95v5.35h-1.35v-4.9c0-0.53-0.03-0.92-0.1-1.15
			c-0.1-0.23-0.27-0.42-0.5-0.55c-0.2-0.13-0.45-0.2-0.75-0.2c-0.57,0-1.03,0.18-1.4,0.55C20.45,100.38,20.28,100.97,20.28,101.77z"
			/>
	</g>
	<g>
		<path fill-rule="evenodd" clip-rule="evenodd" d="M175.73,6.87l1.85-1.1v3.8h1.85v1.45h-1.85v6.35c0,0.53,0.03,0.88,0.1,1.05
			c0.07,0.13,0.18,0.25,0.35,0.35c0.13,0.07,0.33,0.1,0.6,0.1c0.2,0,0.47-0.02,0.8-0.05l0.3,1.65c-0.53,0.1-1,0.15-1.4,0.15
			c-0.67,0-1.18-0.1-1.55-0.3c-0.4-0.23-0.67-0.52-0.8-0.85c-0.17-0.37-0.25-1.1-0.25-2.2v-6.25h-1.35V9.57h1.35V6.87z"/>
	</g>
	<g>
		<g>
			<path fill-rule="evenodd" clip-rule="evenodd" d="M202.68,13.12c0.07,0.1,0.1,0.22,0.1,0.35c0,0.17-0.03,0.3-0.1,0.4
				c-0.07,0.1-0.15,0.15-0.25,0.15h-19.6v-1.05h19.6C202.53,12.97,202.62,13.02,202.68,13.12z"/>
		</g>
		<g>
			<polygon fill-rule="evenodd" clip-rule="evenodd" points="205.73,13.42 201.48,17.67 201.48,9.17 			"/>
		</g>
	</g>
</g>
</svg>
