<?xml version="1.0" encoding="utf-8"?>
<!-- Generator: Adobe Illustrator 16.0.0, SVG Export Plug-In . SVG Version: 6.00 Build 0)  -->
<!DOCTYPE svg PUBLIC "-//W3C//DTD SVG 1.1//EN" "http://www.w3.org/Graphics/SVG/1.1/DTD/svg11.dtd">
<svg version="1.1" id="Layer_1" xmlns="http://www.w3.org/2000/svg" xmlns:xlink="http://www.w3.org/1999/xlink" x="0px" y="0px"
	 width="227.5px" height="67px" viewBox="0 0 227.5 67" enable-background="new 0 0 227.5 67" xml:space="preserve">
<g>
	<g>
		<g>
			
				<linearGradient id="SVGID_1_" gradientUnits="userSpaceOnUse" x1="-193.457" y1="-157.9746" x2="-193.2354" y2="-174.2247" gradientTransform="matrix(1.3871 0 0 1.3871 338.0216 264.9077)">
				<stop  offset="0" style="stop-color:#D12827"/>
				<stop  offset="0.9686" style="stop-color:#D72726"/>
			</linearGradient>
			<path fill-rule="evenodd" clip-rule="evenodd" fill="url(#SVGID_1_)" d="M121.14,18.9v42.59H22.87c-3.05,0-4.58-1.53-4.58-4.58
				v-7.84V24.93v-1.39c0-3.1,1.53-4.65,4.58-4.65h98.21H121.14z"/>
			
				<linearGradient id="SVGID_2_" gradientUnits="userSpaceOnUse" x1="-96.6616" y1="-166.1694" x2="-64.3616" y2="-147.8944" gradientTransform="matrix(1.3871 0 0 1.3871 338.0216 264.9077)">
				<stop  offset="0" style="stop-color:#333237"/>
				<stop  offset="0.1137" style="stop-color:#333237"/>
				<stop  offset="0.1843" style="stop-color:#555155"/>
				<stop  offset="0.549" style="stop-color:#555155"/>
				<stop  offset="0.7216" style="stop-color:#555155"/>
				<stop  offset="1" style="stop-color:#555155"/>
			</linearGradient>
			<path fill-rule="evenodd" clip-rule="evenodd" fill="url(#SVGID_2_)" d="M219.91,24.24v-0.69c0-3.1-1.55-4.65-4.65-4.65h-94.12
				h-0.07l-2.08-5.48h15.05h86.35c1.8,0,3.14,0.46,4.02,1.39c0.05,0.09,0.09,0.16,0.14,0.21c0.74,0.88,1.11,2.08,1.11,3.61v0.21
				L219.91,24.24z"/>
			
				<linearGradient id="SVGID_3_" gradientUnits="userSpaceOnUse" x1="-207.7109" y1="-164.8037" x2="-233.0389" y2="-135.8094" gradientTransform="matrix(1.3871 0 0 1.3871 338.0216 264.9077)">
				<stop  offset="0" style="stop-color:#9E2424"/>
				<stop  offset="0.1137" style="stop-color:#9E2424"/>
				<stop  offset="0.1843" style="stop-color:#AE4747"/>
				<stop  offset="0.2314" style="stop-color:#9E2424"/>
			</linearGradient>
			<path fill-rule="evenodd" clip-rule="evenodd" fill="url(#SVGID_3_)" d="M18.29,24.93l-6.8-5.48v-0.83c0-3.47,1.73-5.2,5.2-5.2
				h102.3l2.08,5.48H22.87c-3.05,0-4.58,1.55-4.58,4.65V24.93z"/>
			<path fill-rule="evenodd" clip-rule="evenodd" fill="#5D5C5E" d="M118.99,13.42l-0.14-0.21l-9.02-10.33h15.12h86.35
				c1.71,0,2.98,0.42,3.82,1.25l9.29,10.68c-0.88-0.93-2.22-1.39-4.02-1.39h-86.35H118.99z"/>
			
				<linearGradient id="SVGID_4_" gradientUnits="userSpaceOnUse" x1="-245.4546" y1="-140.8208" x2="-183.5787" y2="-199.7449" gradientTransform="matrix(1.3871 0 0 1.3871 338.0216 264.9077)">
				<stop  offset="0.1843" style="stop-color:#79221B"/>
				<stop  offset="0.3765" style="stop-color:#79221B"/>
				<stop  offset="0.4431" style="stop-color:#A66467"/>
				<stop  offset="0.4941" style="stop-color:#9C5E61"/>
				<stop  offset="0.9686" style="stop-color:#9C5E61"/>
			</linearGradient>
			<path fill-rule="evenodd" clip-rule="evenodd" fill="url(#SVGID_4_)" d="M11.49,19.45v25.66v14.7c0,1.39,0.28,2.5,0.83,3.33
				l-8.6-9.92c-0.14-0.14-0.25-0.3-0.35-0.49c-0.65-0.83-0.97-1.99-0.97-3.47V8.15c0-3.51,1.73-5.27,5.2-5.27h102.23l9.02,10.33
				l0.14,0.21H16.69c-3.47,0-5.2,1.73-5.2,5.2V19.45z"/>
			
				<linearGradient id="SVGID_5_" gradientUnits="userSpaceOnUse" x1="-122.4951" y1="-164.9424" x2="-87.9377" y2="-127.0206" gradientTransform="matrix(1.3871 0 0 1.3871 338.0216 264.9077)">
				<stop  offset="0.1843" style="stop-color:#555155"/>
				<stop  offset="0.549" style="stop-color:#555155"/>
				<stop  offset="0.9686" style="stop-color:#333237"/>
			</linearGradient>
			<path fill-rule="evenodd" clip-rule="evenodd" fill="url(#SVGID_5_)" d="M225.66,18.83v40.99c0,3.47-1.76,5.2-5.27,5.2h-99.25
				v-3.54h94.12c3.1,0,4.65-1.53,4.65-4.58V24.24L225.66,18.83z"/>
			
				<linearGradient id="SVGID_6_" gradientUnits="userSpaceOnUse" x1="-120.75" y1="-148.5" x2="-120.75" y2="-179.6" gradientTransform="matrix(1.3871 0 0 1.3871 338.0216 264.9077)">
				<stop  offset="0.1882" style="stop-color:#686A70"/>
				<stop  offset="0.9686" style="stop-color:#7E7F83"/>
			</linearGradient>
			<path fill-rule="evenodd" clip-rule="evenodd" fill="url(#SVGID_6_)" d="M121.14,18.9h94.12c3.1,0,4.65,1.55,4.65,4.65v0.69
				v32.67c0,3.05-1.55,4.58-4.65,4.58h-94.12V18.9z"/>
			
				<linearGradient id="SVGID_7_" gradientUnits="userSpaceOnUse" x1="-229.4121" y1="-170.6416" x2="-228.1365" y2="-172.2161" gradientTransform="matrix(1.3871 0 0 1.3871 338.0216 264.9077)">
				<stop  offset="0.8" style="stop-color:#9E2424"/>
				<stop  offset="1" style="stop-color:#AE4747"/>
			</linearGradient>
			<polygon fill-rule="evenodd" clip-rule="evenodd" fill="url(#SVGID_7_)" points="18.29,49.07 11.49,45.12 11.49,19.45 
				18.29,24.93 			"/>
			
				<linearGradient id="SVGID_8_" gradientUnits="userSpaceOnUse" x1="-195.8203" y1="-151.3037" x2="-229.8143" y2="-133.1674" gradientTransform="matrix(1.3871 0 0 1.3871 338.0216 264.9077)">
				<stop  offset="0" style="stop-color:#9E2424"/>
				<stop  offset="0.3804" style="stop-color:#9E2424"/>
				<stop  offset="1" style="stop-color:#9E2424"/>
			</linearGradient>
			<path fill-rule="evenodd" clip-rule="evenodd" fill="url(#SVGID_8_)" d="M11.49,45.12l6.8,3.95v7.84c0,3.05,1.53,4.58,4.58,4.58
				h98.28v3.54H16.69c-1.71,0-3.01-0.42-3.88-1.25c-0.14-0.14-0.28-0.3-0.42-0.49c-0.05-0.05-0.07-0.09-0.07-0.14
				c-0.56-0.83-0.83-1.94-0.83-3.33V45.12z"/>
		</g>
	</g>
	<g>
		
			<radialGradient id="SVGID_9_" cx="-107.3501" cy="-177.25" r="56.675" gradientTransform="matrix(1.3871 0 0 0.0499 338.0216 27.8779)" gradientUnits="userSpaceOnUse">
			<stop  offset="0" style="stop-color:#FFFFFF"/>
			<stop  offset="0.1686" style="stop-color:#FFFFFF;stop-opacity:0.902"/>
			<stop  offset="0.3255" style="stop-color:#FFFFFF;stop-opacity:0.251"/>
			<stop  offset="0.4706" style="stop-color:#FFFFFF;stop-opacity:0.1294"/>
			<stop  offset="0.698" style="stop-color:#FFFFFF;stop-opacity:0.0667"/>
			<stop  offset="0.8784" style="stop-color:#FFFFFF;stop-opacity:0"/>
			<stop  offset="1" style="stop-color:#FFFFFF;stop-opacity:0"/>
		</radialGradient>
		<path fill-rule="evenodd" clip-rule="evenodd" fill="url(#SVGID_9_)" d="M189.11,16.26c8.46,0,16.44,0.05,23.93,0.14
			c3.65,0.97,5.99,3,7.01,6.1c-7.35-0.46-17.66-0.69-30.93-0.69c-21.41,0-39.67-0.28-54.79-0.83c-15.07-0.55-22.61-1.23-22.61-2.01
			c0-0.74,7.54-1.36,22.61-1.87C149.44,16.54,167.71,16.26,189.11,16.26z"/>
	</g>
	<g>
		
			<radialGradient id="SVGID_10_" cx="-174.1001" cy="-177.25" r="104.1875" gradientTransform="matrix(1.3871 0 0 0.0271 338.0216 23.847)" gradientUnits="userSpaceOnUse">
			<stop  offset="0" style="stop-color:#FFFFFF"/>
			<stop  offset="0" style="stop-color:#FFFFFF;stop-opacity:0.6"/>
			<stop  offset="0.1686" style="stop-color:#FFFFFF;stop-opacity:0.5294"/>
			<stop  offset="0.3255" style="stop-color:#FFFFFF;stop-opacity:0.1294"/>
			<stop  offset="0.4706" style="stop-color:#FFFFFF;stop-opacity:0.0471"/>
			<stop  offset="0.698" style="stop-color:#FFFFFF;stop-opacity:0.0667"/>
			<stop  offset="0.8784" style="stop-color:#FFFFFF;stop-opacity:0"/>
			<stop  offset="1" style="stop-color:#FFFFFF;stop-opacity:0"/>
		</radialGradient>
		<path fill-rule="evenodd" clip-rule="evenodd" fill="url(#SVGID_10_)" d="M141.67,16.4c9.85,1.39,9.85,3.14,0,5.27
			c-14.1,0.09-29.15,0.14-45.15,0.14c-32.37,0-60.83-0.19-85.38-0.55v-4.44c24.55-0.37,53.01-0.55,85.38-0.55
			C112.52,16.26,127.57,16.31,141.67,16.4z"/>
	</g>
	<g>
		<path fill-rule="evenodd" clip-rule="evenodd" fill="#333333" fill-opacity="0.5098" d="M137.44,2.88h0.9h0.9h0.9h2.64h1.46h1.25
			h0.62h1.53h1.04h1.25h1.73h0.9h0.97h1.67h0.97h2.84h1.53h0.9h1.87h2.57h0.9h1.8h1.73h1.8h0.83h1.87h1.73h3.54h2.01h1.53h1.8h1.8
			h1.67h0.07h0.55h0.35h1.8h1.8h0.9h0.83h1.8h0.9h1.73h0.9h1.73h0.97H205h0.9h0.9h1.73h0.83h0.97h0.97c0.28,0,0.55,0.02,0.83,0.07
			c0.37,0.05,0.72,0.09,1.04,0.14c0.46,0.14,0.88,0.32,1.25,0.55c0.05,0,0.12,0.02,0.21,0.07c0.19,0.14,0.35,0.28,0.49,0.42
			l9.22,10.61c-0.28-0.28-0.58-0.51-0.9-0.69c-0.28-0.14-0.58-0.25-0.9-0.35c-0.32-0.09-0.69-0.16-1.11-0.21
			c-0.28-0.05-0.63-0.07-1.04-0.07h-1.53h-0.9h-0.97h-0.9h-1.73h-3.61h-0.9h-0.76h-1.8h-0.97h-0.9h-1.6h-1.94h-0.97h-1.59h-1.8
			h-0.63h-1.18h-1.39h-1.25h-1.8h-1.8h-1.8h-0.9h-0.83h-1.67h-1.11h-1.59h-0.69h-1.53h-1.39h-1.73h-0.49h-1.39h-0.9h-1.67h-1.87
			h-0.83h-0.9h-0.9h-1.8h-2.64h-2.71h-1.8h-1.73h-0.9h-1.8h-1.73h-2.64h-1.73h-0.97H145h-0.83h-0.9h-1.8h-0.9h-1.73h-1.8h-0.9h-1.73
			h-0.35h-3.26h-1.8h-2.63h-0.9h-0.83h-2.57h-0.97h-1.87h-0.21l-0.14-0.21l-0.42-0.42l-0.69-0.83l-0.69-0.76l-0.76-0.9l-0.35-0.42
			l-0.35-0.35l-0.76-0.9l-0.69-0.83l-0.35-0.42l-0.62-0.69l-0.35-0.42l-0.76-0.83l-0.42-0.49l-0.76-0.83l-0.28-0.42l-0.76-0.83h1.39
			h2.22h2.7h1.8h0.9h0.83h4.51h0.76h0.9h1.46h1.25h0.9h1.66h0.97h0.9h1.8h0.63h1.18H137.44z"/>
	</g>
	<g>
		
			<linearGradient id="SVGID_11_" gradientUnits="userSpaceOnUse" x1="-89.7642" y1="-188.8003" x2="-94.7601" y2="-184.3957" gradientTransform="matrix(1.3871 0 0 1.3871 338.0216 264.9077)">
			<stop  offset="0" style="stop-color:#323136;stop-opacity:0.6902"/>
			<stop  offset="0.3608" style="stop-color:#7A8185;stop-opacity:0.3098"/>
			<stop  offset="1" style="stop-color:#323136;stop-opacity:0"/>
		</linearGradient>
		<path fill-rule="evenodd" clip-rule="evenodd" fill="url(#SVGID_11_)" d="M194.38,2.88h0.83h1.8h0.9h1.73h0.9h1.73h0.97H205h0.9
			h0.9h1.73h0.83h0.97h0.97c0.28,0,0.55,0.02,0.83,0.07c0.37,0.05,0.72,0.09,1.04,0.14c0.46,0.14,0.88,0.32,1.25,0.55
			c0.05,0,0.12,0.02,0.21,0.07c0.19,0.14,0.35,0.28,0.49,0.42l9.22,10.61c-0.28-0.28-0.58-0.51-0.9-0.69
			c-0.28-0.14-0.58-0.25-0.9-0.35c-0.32-0.09-0.69-0.16-1.11-0.21c-0.28-0.05-0.63-0.07-1.04-0.07h-1.53h-0.9h-0.97h-0.9h-1.73
			h-3.61h-0.9h-0.76h-1.8h-0.97h-0.9h-1.6h-1.94h-0.97h-1.59h-1.8h-0.63l-7.35-10.54h0.35h1.8h1.8H194.38z"/>
	</g>
	<g>
		
			<linearGradient id="SVGID_12_" gradientUnits="userSpaceOnUse" x1="-224.3535" y1="-165.7036" x2="-204.7549" y2="-180.6226" gradientTransform="matrix(1.3871 0 0 1.3871 338.0216 264.9077)">
			<stop  offset="0" style="stop-color:#863531;stop-opacity:0.902"/>
			<stop  offset="1" style="stop-color:#9E2424;stop-opacity:0.4118"/>
		</linearGradient>
		<path fill-rule="evenodd" clip-rule="evenodd" fill="url(#SVGID_12_)" d="M116.29,10.3l2.08,2.43l0.35,0.35l0.14,0.14l0.14,0.21
			h-1.32H93.75c-0.37-0.05-0.79-0.05-1.25,0h-8.39h-1.8h-2.91h-2.01h-4.79h-2.64h-0.9h-1.8h-2.7h-1.39h-3.88h-3.54h-2.08h-2.77H49.5
			h-1.18h-1.53h-4.16H40h-2.77h-2.64H33.2h-1.39h-1.46h-2.64h-2.98h-3.88h-1.39h-2.77c-0.88,0-1.66,0.14-2.36,0.42
			c-0.05,0-0.09,0-0.14,0c-0.32,0.14-0.6,0.3-0.83,0.49c-0.28,0.19-0.53,0.42-0.76,0.69c-0.14,0.14-0.25,0.3-0.35,0.49
			c-0.14,0.23-0.25,0.51-0.35,0.83c-0.09,0.09-0.14,0.18-0.14,0.28c-0.14-0.09-0.3-0.18-0.48-0.28c-0.14-0.14-0.25-0.28-0.35-0.42
			l-0.35-0.42l-0.28-0.42L9.9,14.53l-0.56-0.69l-0.55-0.76L8.51,12.8l-0.76-0.97l-0.21-0.35l-0.62-0.76l-0.69-0.9L5.94,9.47
			L5.67,9.05L5.32,8.64L4.76,7.8L4.42,7.46L4.07,7.04L3.79,6.62L3.52,6.28L3.1,5.79L2.89,5.44C2.94,5.26,3.01,5.12,3.1,5.03
			c0.05-0.09,0.09-0.19,0.14-0.28c0.14-0.19,0.3-0.35,0.49-0.49c0.09-0.18,0.23-0.35,0.42-0.49c0.56-0.37,1.23-0.62,2.01-0.76
			c0.05,0,0.12,0,0.21,0c0.37-0.09,0.79-0.14,1.25-0.14h1.11h1.32h2.71h1.25h2.64h2.98h1.39h4.16h1.94h1.8h3.61h3.47h1.39h2.36h3.05
			h1.39h1.39h1.39h6.8h1.25h1.46h0.35h3.19h1.87h3.26h0.83h4.92h6.03h2.77h4.02h2.77h2.64H90h14.56h2.29h0.76h1.94h0.28l0.14,0.14
			l0.28,0.35l0.35,0.42l0.35,0.42l0.42,0.42l4.16,4.85l0.42,0.42L116.29,10.3z"/>
	</g>
	<g>
		<g>
			<linearGradient id="SVGID_13_" gradientUnits="userSpaceOnUse" x1="172.3486" y1="65.9502" x2="172.3232" y2="12.4502">
				<stop  offset="0" style="stop-color:#000000;stop-opacity:0.498"/>
				<stop  offset="0.9686" style="stop-color:#000000;stop-opacity:0"/>
			</linearGradient>
			<path fill-rule="evenodd" clip-rule="evenodd" fill="url(#SVGID_13_)" d="M121.15,65V18.9h-0.1L119,13.4h15.05h86.35
				c1.8,0,3.13,0.47,4,1.4c0.07,0.1,0.12,0.17,0.15,0.2c0.73,0.9,1.1,2.1,1.1,3.6v41.2c0,3.47-1.75,5.2-5.25,5.2H121.15z"/>
			<linearGradient id="SVGID_14_" gradientUnits="userSpaceOnUse" x1="66.4683" y1="69.5566" x2="66.2121" y2="15.4317">
				<stop  offset="0" style="stop-color:#9E2424;stop-opacity:0.902"/>
				<stop  offset="0.9686" style="stop-color:#D83131;stop-opacity:0"/>
			</linearGradient>
			<path fill-rule="evenodd" clip-rule="evenodd" fill="url(#SVGID_14_)" d="M121.15,65H16.7c-1.7,0-3-0.42-3.9-1.25
				c-0.13-0.13-0.27-0.28-0.4-0.45c-0.07-0.07-0.1-0.12-0.1-0.15c-0.53-0.83-0.8-1.95-0.8-3.35V18.6c0-3.47,1.73-5.2,5.2-5.2H119
				l2.05,5.5h0.1V65z"/>
		</g>
	</g>
	<g>
		<g>
			<g>
				
					<linearGradient id="SVGID_15_" gradientUnits="userSpaceOnUse" x1="-155.9995" y1="-161.623" x2="-161.5995" y2="-161.6447" gradientTransform="matrix(1.3871 0 0 1.3871 338.0216 264.9077)">
					<stop  offset="0" style="stop-color:#3E272D"/>
					<stop  offset="0.2471" style="stop-color:#41282E"/>
					<stop  offset="0.4745" style="stop-color:#721C1B"/>
					<stop  offset="1" style="stop-color:#721D1C"/>
				</linearGradient>
				<path fill-rule="evenodd" clip-rule="evenodd" fill="url(#SVGID_15_)" d="M120.73,30.14v4.02c-1.02,0-1.87,0.35-2.57,1.04
					c-0.74,0.74-1.11,1.64-1.11,2.71v5.69c0,1.02,0.37,1.87,1.11,2.57c0.69,0.74,1.55,1.11,2.57,1.11v4.02
					c-1.62,0-3.03-0.6-4.23-1.8c-1.16-1.11-1.73-2.5-1.73-4.16V36.1c0-1.66,0.58-3.07,1.73-4.23
					C117.7,30.71,119.11,30.14,120.73,30.14z"/>
				
					<linearGradient id="SVGID_16_" gradientUnits="userSpaceOnUse" x1="-154.5386" y1="-168.4746" x2="-154.4798" y2="-154.7246" gradientTransform="matrix(1.3871 0 0 1.3871 338.0216 264.9077)">
					<stop  offset="0" style="stop-color:#41282E"/>
					<stop  offset="0.1529" style="stop-color:#33262C"/>
					<stop  offset="0.302" style="stop-color:#61282B"/>
					<stop  offset="0.4745" style="stop-color:#721C1B"/>
					<stop  offset="0.9765" style="stop-color:#442225"/>
				</linearGradient>
				<path fill-rule="evenodd" clip-rule="evenodd" fill="url(#SVGID_16_)" d="M120.73,47.27c1.06,0,1.92-0.37,2.57-1.11
					c0.79-0.69,1.18-1.55,1.18-2.57V37.9c0-1.06-0.39-1.96-1.18-2.71c-0.65-0.69-1.5-1.04-2.57-1.04v-4.02
					c1.66,0,3.08,0.58,4.23,1.73c1.16,1.16,1.73,2.57,1.73,4.23v9.23c0,1.66-0.58,3.05-1.73,4.16c-1.16,1.2-2.57,1.8-4.23,1.8V47.27
					z"/>
				
					<radialGradient id="SVGID_17_" cx="-157.25" cy="-158.2002" r="4.2375" fx="-157.3996" fy="-158.2002" gradientTransform="matrix(1.3871 0 0 3.9854 338.0216 675.9612)" gradientUnits="userSpaceOnUse">
					<stop  offset="0.4118" style="stop-color:#721C1B"/>
					<stop  offset="0.6314" style="stop-color:#4A1515"/>
					<stop  offset="0.7961" style="stop-color:#3C1212"/>
					<stop  offset="1" style="stop-color:#331010"/>
				</radialGradient>
				<path fill-rule="evenodd" clip-rule="evenodd" fill="url(#SVGID_17_)" d="M120.73,34.16c1.06,0,1.92,0.35,2.57,1.04
					c0.79,0.74,1.18,1.64,1.18,2.71v5.69c0,1.02-0.39,1.87-1.18,2.57c-0.65,0.74-1.5,1.11-2.57,1.11c-1.02,0-1.87-0.37-2.57-1.11
					c-0.74-0.69-1.11-1.55-1.11-2.57V37.9c0-1.06,0.37-1.96,1.11-2.71C118.85,34.5,119.71,34.16,120.73,34.16z"/>
			</g>
		</g>
		<g>
			
				<radialGradient id="SVGID_18_" cx="-157.1001" cy="-161.3999" r="4.75" gradientTransform="matrix(1.3871 0 0 1.4893 338.0216 281.4043)" gradientUnits="userSpaceOnUse">
				<stop  offset="0" style="stop-color:#4A1515;stop-opacity:0"/>
				<stop  offset="0.5922" style="stop-color:#481515;stop-opacity:0"/>
				<stop  offset="0.6667" style="stop-color:#451515;stop-opacity:0"/>
				<stop  offset="0.8118" style="stop-color:#3A1212;stop-opacity:0.6078"/>
				<stop  offset="1" style="stop-color:#331010"/>
			</radialGradient>
			<path fill-rule="evenodd" clip-rule="evenodd" fill="url(#SVGID_18_)" d="M118.16,46.16c-0.46-0.42-0.79-0.9-0.97-1.46
				c2.54,1.48,4.97,0.76,7.28-2.15v1.04c0,1.02-0.39,1.87-1.18,2.57c-0.65,0.74-1.5,1.11-2.57,1.11
				C119.71,47.27,118.85,46.9,118.16,46.16z"/>
		</g>
		<g>
			
				<radialGradient id="SVGID_19_" cx="-157.2998" cy="-159.2998" r="2.775" fx="-157.3869" fy="-159.2998" gradientTransform="matrix(1.3871 0 0 1.4809 338.0216 279.838)" gradientUnits="userSpaceOnUse">
				<stop  offset="0" style="stop-color:#FFFFFF;stop-opacity:0.5373"/>
				<stop  offset="0.1961" style="stop-color:#FFFFFF;stop-opacity:0.251"/>
				<stop  offset="0.3098" style="stop-color:#FFFFFF;stop-opacity:0.0863"/>
				<stop  offset="0.4902" style="stop-color:#FFFFFF;stop-opacity:0.0275"/>
				<stop  offset="0.7843" style="stop-color:#FFFFFF;stop-opacity:0"/>
				<stop  offset="1" style="stop-color:#FFFFFF;stop-opacity:7.843138e-003"/>
			</radialGradient>
			<path fill-rule="evenodd" clip-rule="evenodd" fill="url(#SVGID_19_)" d="M123.43,43.94c0,1.06-0.35,1.96-1.04,2.71
				c-0.69,0.79-1.55,1.18-2.57,1.18c-1.02,0-1.85-0.39-2.5-1.18c-0.69-0.74-1.04-1.64-1.04-2.71s0.35-1.96,1.04-2.71
				c0.65-0.74,1.48-1.11,2.5-1.11c1.02,0,1.87,0.37,2.57,1.11C123.09,41.97,123.43,42.87,123.43,43.94z"/>
		</g>
	</g>
	<g>
		<path fill-rule="evenodd" clip-rule="evenodd" fill="#FFFFFF" fill-opacity="0.251" d="M165.74,31.66
			c1.11-0.51,2.47-0.76,4.09-0.76c2.59,0,4.55,0.58,5.9,1.73s2.03,2.68,2.08,4.58l-4.23,0.21c-0.18-1.06-0.55-1.83-1.11-2.29
			c-0.6-0.51-1.5-0.76-2.71-0.76s-2.15,0.25-2.84,0.76c-0.46,0.32-0.69,0.76-0.69,1.32c0,0.51,0.21,0.93,0.62,1.25
			c0.55,0.46,1.85,0.92,3.88,1.39c2.04,0.51,3.56,1.02,4.58,1.53c0.97,0.51,1.73,1.22,2.29,2.15c0.55,0.88,0.83,1.96,0.83,3.26
			c0,1.2-0.35,2.33-1.04,3.4c-0.65,1.02-1.57,1.78-2.77,2.29c-1.25,0.51-2.77,0.76-4.58,0.76c-2.64,0-4.65-0.6-6.03-1.8
			c-1.43-1.2-2.29-2.98-2.57-5.34l4.09-0.42c0.28,1.39,0.79,2.4,1.53,3.05s1.76,0.97,3.05,0.97c1.34,0,2.36-0.28,3.05-0.83
			c0.69-0.6,1.04-1.27,1.04-2.01c0-0.51-0.14-0.92-0.42-1.25c-0.32-0.37-0.83-0.69-1.53-0.97c-0.51-0.14-1.64-0.44-3.4-0.9
			c-2.27-0.55-3.84-1.23-4.72-2.01c-1.29-1.16-1.94-2.57-1.94-4.23c0-1.06,0.3-2.06,0.9-2.98
			C163.71,32.82,164.58,32.12,165.74,31.66z M75.65,32.42V53.3h-4.23l-8.39-13.59V53.3h-3.95V32.42h4.09l8.53,13.94V32.42H75.65z"/>
	</g>
	<g>
		<g>
			<path fill-rule="evenodd" clip-rule="evenodd" fill="#7F8281" fill-opacity="0.1804" d="M177.6,42.75
				c0.57,0.9,0.85,1.98,0.85,3.25c0,1.2-0.35,2.33-1.05,3.4c-0.67,1.03-1.6,1.8-2.8,2.3c-1.23,0.5-2.75,0.75-4.55,0.75
				c-2.63,0-4.65-0.6-6.05-1.8c-1.43-1.2-2.28-2.98-2.55-5.35l4.1-0.4c0.03,0.23,0.07,0.45,0.1,0.65c0.3,1.07,0.77,1.87,1.4,2.4
				c0.73,0.67,1.75,1,3.05,1c1.33,0,2.35-0.28,3.05-0.85c0.2-0.2,0.38-0.37,0.55-0.5c0.33-0.5,0.5-1,0.5-1.5c0-0.1,0-0.2,0-0.3
				c-0.03-0.37-0.17-0.68-0.4-0.95c-0.13-0.13-0.3-0.28-0.5-0.45c-0.27-0.2-0.62-0.38-1.05-0.55c-0.33-0.07-0.93-0.22-1.8-0.45
				c-0.47-0.17-1-0.32-1.6-0.45c-2.27-0.53-3.83-1.2-4.7-2c-1.3-1.17-1.95-2.58-1.95-4.25c0-1.03,0.3-2.02,0.9-2.95
				c0.6-0.93,1.48-1.63,2.65-2.1c1.1-0.5,2.47-0.75,4.1-0.75c2.57,0,4.53,0.58,5.9,1.75c1.2,1.07,1.88,2.4,2.05,4
				c0,0.2,0,0.38,0,0.55l-4.2,0.2c-0.2-1.07-0.58-1.82-1.15-2.25c-0.6-0.53-1.5-0.8-2.7-0.8s-2.15,0.27-2.85,0.8
				c-0.4,0.3-0.62,0.72-0.65,1.25v0.05c0,0.47,0.18,0.87,0.55,1.2l0.05,0.05c0.57,0.47,1.87,0.93,3.9,1.4c2.03,0.5,3.55,1,4.55,1.5
				C176.27,41.1,177.03,41.82,177.6,42.75z"/>
			<path fill-rule="evenodd" clip-rule="evenodd" fill="#9E2424" fill-opacity="0.498" d="M75.65,32.4v20.9H71.4L63,39.7v13.6h-3.95
				V32.4h4.1l8.55,13.95V32.4H75.65z M74.95,32.9H72.3v15.8l-9.95-15.65H59.6v19.5h2.75V37.3l9.55,15.4h3.05V32.9z"/>
			<polygon fill-rule="evenodd" clip-rule="evenodd" fill="#D72828" fill-opacity="0.2" points="74.95,32.9 74.95,52.7 71.9,52.7 
				62.35,37.3 62.35,52.55 59.6,52.55 59.6,33.05 62.35,33.05 72.3,48.7 72.3,32.9 			"/>
		</g>
	</g>
	<g>
		<g>
			
				<radialGradient id="SVGID_20_" cx="-120.8501" cy="-166.3501" r="4.75" gradientTransform="matrix(1.3871 0 0 1.0769 338.0216 213.2927)" gradientUnits="userSpaceOnUse">
				<stop  offset="0" style="stop-color:#FFFFFF"/>
				<stop  offset="1" style="stop-color:#FFFFFF;stop-opacity:0"/>
			</radialGradient>
			<path fill-rule="evenodd" clip-rule="evenodd" fill="url(#SVGID_20_)" d="M166.09,31.52c-0.69,0.28-1.27,0.65-1.73,1.11h-1.18
				c0.6-0.88,1.46-1.55,2.57-2.01c1.11-0.51,2.47-0.76,4.09-0.76c2.59,0,4.55,0.58,5.9,1.73c0.37,0.32,0.69,0.67,0.97,1.04h-1.25
				c-0.09-0.09-0.18-0.16-0.28-0.21c-1.2-1.06-2.98-1.6-5.34-1.6C168.35,30.83,167.1,31.06,166.09,31.52z"/>
			
				<radialGradient id="SVGID_21_" cx="-120.2002" cy="-156.5498" r="5.2625" gradientTransform="matrix(1.3871 0 0 1.3871 338.0216 264.9077)" gradientUnits="userSpaceOnUse">
				<stop  offset="0" style="stop-color:#FFFFFF"/>
				<stop  offset="1" style="stop-color:#FFFFFF;stop-opacity:0"/>
			</radialGradient>
			<path fill-rule="evenodd" clip-rule="evenodd" fill="url(#SVGID_21_)" d="M176.7,49.69c0.55-0.83,0.86-1.71,0.94-2.64h0.8
				c-0.07,1.07-0.41,2.09-1.04,3.05c-0.65,1.02-1.57,1.78-2.77,2.29c-1.25,0.51-2.77,0.76-4.58,0.76c-2.64,0-4.65-0.6-6.03-1.8
				c-1.21-1.02-2.01-2.45-2.39-4.3h0.83c0.37,1.66,1.07,2.91,2.12,3.75c1.25,1.11,3.07,1.67,5.48,1.67c1.62,0,3.01-0.23,4.16-0.69
				C175.31,51.31,176.14,50.62,176.7,49.69z"/>
			
				<linearGradient id="SVGID_22_" gradientUnits="userSpaceOnUse" x1="-121.2441" y1="-169.7886" x2="-120.9031" y2="-151.0134" gradientTransform="matrix(1.3871 0 0 1.3871 338.0216 264.9077)">
				<stop  offset="0" style="stop-color:#0B0B0B"/>
				<stop  offset="0.3608" style="stop-color:#7A8185;stop-opacity:0.3216"/>
				<stop  offset="1" style="stop-color:#0D0D0D"/>
			</linearGradient>
			<path fill-rule="evenodd" clip-rule="evenodd" fill="url(#SVGID_22_)" d="M173.72,48.31c0.26-0.42,0.43-0.83,0.49-1.25h0.69
				c-0.09,0.53-0.37,1.11-0.83,1.73c-0.18,0.23-0.42,0.46-0.69,0.69c-0.74,0.51-1.83,0.76-3.26,0.76c-1.39,0-2.47-0.3-3.26-0.9
				c-0.64-0.49-1.11-1.25-1.42-2.29h0.52c0.27,0.66,0.64,1.2,1.11,1.6c0.74,0.65,1.76,0.97,3.05,0.97c1.34,0,2.36-0.28,3.05-0.83
				C173.35,48.61,173.53,48.45,173.72,48.31z"/>
		</g>
	</g>
	<g>
		
			<linearGradient id="SVGID_23_" gradientUnits="userSpaceOnUse" x1="-121.396" y1="-170.2861" x2="-121.055" y2="-151.511" gradientTransform="matrix(1.3871 0 0 1.3871 338.0216 264.9077)">
			<stop  offset="0" style="stop-color:#0B0B0B"/>
			<stop  offset="0.3608" style="stop-color:#7A8185;stop-opacity:0.3255"/>
			<stop  offset="1" style="stop-color:#0D0D0D"/>
		</linearGradient>
		<path fill-rule="evenodd" clip-rule="evenodd" fill="url(#SVGID_23_)" d="M169.83,31.87c-1.48,0-2.73,0.23-3.75,0.69
			c-1.02,0.42-1.8,1.04-2.36,1.87c-0.51,0.76-0.79,1.59-0.83,2.46c-0.2,2.58,2.48,4.55,8.04,5.93c3.86,1.13,4.9,2.87,3.12,5.24
			c-0.17,0.25-0.4,0.49-0.69,0.73c-0.74,0.51-1.83,0.76-3.26,0.76c-1.39,0-2.47-0.3-3.26-0.9c-0.79-0.6-1.33-1.63-1.63-3.09
			l-2.91,0.24c0.35,1.94,1.1,3.38,2.25,4.3c1.25,1.11,3.07,1.67,5.48,1.67c1.62,0,3.01-0.23,4.16-0.69c1.11-0.46,1.94-1.16,2.5-2.08
			c0.65-0.97,0.97-2.01,0.97-3.12c0-1.16-0.25-2.13-0.76-2.91c-0.51-0.88-1.2-1.55-2.08-2.01c-0.93-0.46-2.31-0.92-4.16-1.39
			c-0.46-0.09-0.86-0.18-1.18-0.28c-4.58-1.11-5.2-2.83-1.87-5.17c0.59-0.21,1.33-0.31,2.22-0.31c1.34,0,2.36,0.23,3.05,0.69
			c0.6,0.46,0.99,1.18,1.18,2.15h2.95c-0.22-1.3-0.83-2.37-1.84-3.19C173.97,32.4,172.19,31.87,169.83,31.87z M165.74,31.66
			c1.11-0.51,2.47-0.76,4.09-0.76c2.59,0,4.55,0.58,5.9,1.73c1.21,1.04,1.89,2.38,2.05,4.02c0.02,0.18,0.03,0.37,0.03,0.55
			l-4.23,0.21c-0.18-1.06-0.55-1.83-1.11-2.29c-0.6-0.51-1.5-0.76-2.71-0.76s-2.15,0.25-2.84,0.76c-0.44,0.31-0.67,0.71-0.69,1.21
			c0,0.04,0,0.07,0,0.1c0,0.46,0.17,0.84,0.52,1.15c0.03,0.04,0.06,0.07,0.1,0.1c0.55,0.46,1.85,0.92,3.88,1.39
			c2.04,0.51,3.56,1.02,4.58,1.53c0.97,0.51,1.73,1.22,2.29,2.15c0.55,0.88,0.83,1.96,0.83,3.26c0,1.2-0.35,2.33-1.04,3.4
			c-0.65,1.02-1.57,1.78-2.77,2.29c-1.25,0.51-2.77,0.76-4.58,0.76c-2.64,0-4.65-0.6-6.03-1.8c-1.43-1.2-2.29-2.98-2.57-5.34
			l4.09-0.42c0.04,0.22,0.09,0.42,0.14,0.63c0.3,1.07,0.76,1.88,1.39,2.43c0.74,0.65,1.76,0.97,3.05,0.97
			c1.34,0,2.36-0.28,3.05-0.83c0.2-0.17,0.37-0.35,0.52-0.52c0.35-0.47,0.52-0.96,0.52-1.49c0-0.11-0.01-0.21-0.03-0.31
			c-0.03-0.37-0.16-0.68-0.38-0.94c-0.14-0.15-0.31-0.3-0.52-0.45c-0.27-0.19-0.6-0.36-1.01-0.52c-0.33-0.09-0.94-0.25-1.8-0.49
			c-0.46-0.12-0.99-0.26-1.6-0.42c-2.27-0.55-3.84-1.23-4.72-2.01c-1.29-1.16-1.94-2.57-1.94-4.23c0-1.06,0.3-2.06,0.9-2.98
			C163.71,32.82,164.58,32.12,165.74,31.66z"/>
	</g>
	<g>
		<g>
			
				<radialGradient id="SVGID_24_" cx="-187.75" cy="-157.8501" r="7.75" gradientTransform="matrix(1.3871 0 0 1.3871 338.0216 264.9077)" gradientUnits="userSpaceOnUse">
				<stop  offset="0" style="stop-color:#FFFFFF;stop-opacity:0.651"/>
				<stop  offset="1" style="stop-color:#FFFFFF;stop-opacity:0"/>
			</radialGradient>
			<polygon fill-rule="evenodd" clip-rule="evenodd" fill="url(#SVGID_24_)" points="76.34,32.91 76.34,53.79 72.11,53.79 
				71.76,53.23 75.71,53.23 75.71,32.91 			"/>
			
				<radialGradient id="SVGID_25_" cx="-197.1001" cy="-156.1001" r="5.4875" gradientTransform="matrix(1.3871 0 0 1.3871 338.0216 264.9077)" gradientUnits="userSpaceOnUse">
				<stop  offset="0" style="stop-color:#FFFFFF;stop-opacity:0.3451"/>
				<stop  offset="1" style="stop-color:#FFFFFF;stop-opacity:0"/>
			</radialGradient>
			<path fill-rule="evenodd" clip-rule="evenodd" fill="url(#SVGID_25_)" d="M63.65,40.78v13.07h-3.88V53.3h3.29l0.03-13.46
				C63.26,40.13,63.45,40.45,63.65,40.78z"/>
		</g>
	</g>
</g>
</svg>
