<?xml version="1.0" encoding="utf-8"?>
<!-- Generator: Adobe Illustrator 16.0.0, SVG Export Plug-In . SVG Version: 6.00 Build 0)  -->
<!DOCTYPE svg PUBLIC "-//W3C//DTD SVG 1.1//EN" "http://www.w3.org/Graphics/SVG/1.1/DTD/svg11.dtd">
<svg version="1.1" id="Layer_1" xmlns="http://www.w3.org/2000/svg" xmlns:xlink="http://www.w3.org/1999/xlink" x="0px" y="0px"
	 width="254.83px" height="61.5px" viewBox="0 0 254.83 61.5" enable-background="new 0 0 254.83 61.5" xml:space="preserve">
<g>
	<g>
		<g>
			<linearGradient id="SVGID_1_" gradientUnits="userSpaceOnUse" x1="8.5435" y1="76.2061" x2="16.4261" y2="-9.3955">
				<stop  offset="0" style="stop-color:#3C3B3A"/>
				<stop  offset="0.2627" style="stop-color:#383230"/>
				<stop  offset="0.5059" style="stop-color:#676263"/>
				<stop  offset="0.7216" style="stop-color:#7D7B7B"/>
				<stop  offset="1" style="stop-color:#413F3F"/>
			</linearGradient>
			<path fill-rule="evenodd" clip-rule="evenodd" fill="url(#SVGID_1_)" d="M12.88,1.1c3.17,0.1,5.88,2.98,8.15,8.65
				c2.3,5.77,3.45,12.75,3.45,20.95s-1.15,15.18-3.45,20.95c-2.27,5.7-4.98,8.6-8.15,8.7h-0.3c-3.17-0.1-5.88-3-8.15-8.7
				C2.13,45.88,0.98,38.9,0.98,30.7S2.13,15.52,4.43,9.75C6.7,4.08,9.42,1.2,12.58,1.1H12.88z"/>
			<linearGradient id="SVGID_2_" gradientUnits="userSpaceOnUse" x1="8.5435" y1="76.2061" x2="16.4261" y2="-9.3955">
				<stop  offset="0" style="stop-color:#3C3B3A"/>
				<stop  offset="0.2627" style="stop-color:#383230"/>
				<stop  offset="0.5059" style="stop-color:#676263"/>
				<stop  offset="0.7216" style="stop-color:#7D7B7B"/>
				<stop  offset="1" style="stop-color:#413F3F"/>
			</linearGradient>
			<path fill-rule="evenodd" clip-rule="evenodd" fill="url(#SVGID_2_)" d="M12.88,1.1c3.17,0.1,5.88,2.98,8.15,8.65
				c2.3,5.77,3.45,12.75,3.45,20.95s-1.15,15.18-3.45,20.95c-2.27,5.7-4.98,8.6-8.15,8.7h-0.3c-3.17-0.1-5.88-3-8.15-8.7
				C2.13,45.88,0.98,38.9,0.98,30.7S2.13,15.52,4.43,9.75C6.7,4.08,9.42,1.2,12.58,1.1H12.88z"/>
			<linearGradient id="SVGID_3_" gradientUnits="userSpaceOnUse" x1="133.3081" y1="58.8496" x2="133.3081" y2="2.3496">
				<stop  offset="0" style="stop-color:#333333"/>
				<stop  offset="0.1373" style="stop-color:#51504C"/>
				<stop  offset="0.3098" style="stop-color:#27241F"/>
				<stop  offset="0.4275" style="stop-color:#3E3D3B"/>
				<stop  offset="0.5569" style="stop-color:#797E81"/>
				<stop  offset="0.7216" style="stop-color:#CFD7DA"/>
				<stop  offset="0.8902" style="stop-color:#8D9595"/>
				<stop  offset="1" style="stop-color:#656665"/>
			</linearGradient>
			<path fill-rule="evenodd" clip-rule="evenodd" fill="url(#SVGID_3_)" d="M12.88,1.1h229.25c3.17,0.1,5.88,2.98,8.15,8.65
				c2.3,5.77,3.45,12.75,3.45,20.95s-1.15,15.18-3.45,20.95c-2.27,5.7-4.98,8.6-8.15,8.7H12.88c3.17-0.1,5.88-3,8.15-8.7
				c2.3-5.77,3.45-12.75,3.45-20.95s-1.15-15.18-3.45-20.95C18.77,4.08,16.05,1.2,12.88,1.1z"/>
			<linearGradient id="SVGID_4_" gradientUnits="userSpaceOnUse" x1="133.3081" y1="58.8496" x2="133.3081" y2="2.3496">
				<stop  offset="0" style="stop-color:#333333"/>
				<stop  offset="0.1373" style="stop-color:#51504C"/>
				<stop  offset="0.3098" style="stop-color:#27241F"/>
				<stop  offset="0.4275" style="stop-color:#3E3D3B"/>
				<stop  offset="0.5569" style="stop-color:#797E81"/>
				<stop  offset="0.7216" style="stop-color:#CFD7DA"/>
				<stop  offset="0.8902" style="stop-color:#8D9595"/>
				<stop  offset="1" style="stop-color:#656665"/>
			</linearGradient>
			<path fill-rule="evenodd" clip-rule="evenodd" fill="url(#SVGID_4_)" d="M12.88,1.1h229.25c3.17,0.1,5.88,2.98,8.15,8.65
				c2.3,5.77,3.45,12.75,3.45,20.95s-1.15,15.18-3.45,20.95c-2.27,5.7-4.98,8.6-8.15,8.7H12.88c3.17-0.1,5.88-3,8.15-8.7
				c2.3-5.77,3.45-12.75,3.45-20.95s-1.15-15.18-3.45-20.95C18.77,4.08,16.05,1.2,12.88,1.1z"/>
		</g>
	</g>
	<g>
		
			<radialGradient id="SVGID_5_" cx="24.0337" cy="25.7998" r="22.8625" gradientTransform="matrix(1 1.375134e-003 -1.366868e-003 0.994 0.0354 0.122)" gradientUnits="userSpaceOnUse">
			<stop  offset="0" style="stop-color:#FFFFFF"/>
			<stop  offset="0.1059" style="stop-color:#FFFFFF"/>
			<stop  offset="0.3176" style="stop-color:#FFFFFF;stop-opacity:0.4471"/>
			<stop  offset="1" style="stop-color:#FEFEFE;stop-opacity:0"/>
		</radialGradient>
		<path fill-rule="evenodd" clip-rule="evenodd" fill="url(#SVGID_5_)" d="M14.91,2.27c-0.13-0.04-0.22-0.13-0.28-0.25
			c-0.06-0.13-0.07-0.26-0.02-0.4c0.04-0.13,0.13-0.22,0.25-0.27c0.13-0.06,0.26-0.07,0.4-0.02c2.59,0.88,4.84,3.73,6.75,8.55
			c2.32,5.81,3.48,12.81,3.48,20.97c-0.04,8.31-1.25,15.31-3.65,21l0.02-0.02c-1.48,3.82-3.17,6.39-5.07,7.72
			c-0.11,0.08-0.24,0.12-0.38,0.1c-0.14-0.02-0.24-0.09-0.33-0.2c-0.08-0.11-0.12-0.24-0.1-0.38c0.02-0.14,0.09-0.24,0.2-0.33
			c1.76-1.27,3.34-3.69,4.73-7.28l0.02-0.02c2.34-5.58,3.52-12.45,3.55-20.6c0-8.03-1.15-14.91-3.42-20.62
			C19.3,5.78,17.25,3.13,14.91,2.27z"/>
	</g>
</g>
</svg>
