<?xml version="1.0" encoding="utf-8"?>
<!-- Generator: Adobe Illustrator 16.0.0, SVG Export Plug-In . SVG Version: 6.00 Build 0)  -->
<!DOCTYPE svg PUBLIC "-//W3C//DTD SVG 1.1//EN" "http://www.w3.org/Graphics/SVG/1.1/DTD/svg11.dtd">
<svg version="1.1" id="Layer_1" xmlns="http://www.w3.org/2000/svg" xmlns:xlink="http://www.w3.org/1999/xlink" x="0px" y="0px"
	 width="33.5px" height="205.75px" viewBox="500.25 11.45 33.5 205.75" enable-background="new 500.25 11.45 33.5 205.75"
	 xml:space="preserve">
<g id="scale">
	<g>
		<polygon fill="#CCCCCC" points="531.97,12.92 532.78,12.92 532.78,215.67 531.97,215.67 531.97,212.52 531.97,209.97 
			531.97,207.47 531.97,205.02 531.97,202.47 531.97,199.92 531.97,197.47 531.97,194.92 531.97,192.42 531.97,189.92 
			531.97,187.42 531.97,184.92 531.97,182.37 531.97,179.87 531.97,177.37 531.97,174.82 531.97,172.32 531.97,169.82 
			531.97,167.32 531.97,164.87 531.97,162.32 531.97,159.82 531.97,157.27 531.97,154.77 531.97,152.27 531.97,149.77 
			531.97,147.22 531.97,144.72 531.97,142.22 531.97,139.72 531.97,137.22 531.97,134.72 531.97,132.17 531.97,129.67 
			531.97,127.17 531.97,124.67 531.97,122.17 531.97,119.62 531.97,117.12 531.97,114.62 531.97,112.12 531.97,109.62 
			531.97,107.07 531.97,104.57 531.97,102.02 531.97,99.52 531.97,97.07 531.97,94.52 531.97,92.02 531.97,89.52 531.97,87.02 
			531.97,84.52 531.97,82.02 531.97,79.47 531.97,76.97 531.97,74.47 531.97,71.97 531.97,69.42 531.97,66.92 531.97,64.42 
			531.97,61.92 531.97,59.37 531.97,56.87 531.97,54.37 531.97,51.87 531.97,49.32 531.97,46.82 531.97,44.32 531.97,41.82 
			531.97,39.32 531.97,36.77 531.97,34.32 531.97,31.77 531.97,29.27 531.97,26.77 531.97,24.27 531.97,21.77 531.97,19.22 
			531.97,16.22 		"/>
		<path fill="#BDB187" fill-opacity="0.298" d="M531.97,21.77h-3H531.97v2.5h-3h3v2.5v2.5v2.5h-3h3v2.55v2.45h-3h3v2.55v2.5v2.5h-3
			h3v2.5h-3h3v2.5v2.55h-3.45h3.45v2.5v2.5h-3h3v2.5v2.55h-3h3v2.5v2.5v2.5h-3h3v2.55v2.5h-3h3v2.5v2.5v2.55h-3h3v2.5h-3h3v2.5v2.5
			v2.5v2.5h-3h3v2.55v2.45h-3h3v2.5v2.55v2.5h-3h3v2.55h-3h3v2.5v2.5h-4h4v2.5v2.5h-3h3v2.55h-3h3v2.5v2.5h-3.45h3.45v2.5v2.5h-3h3
			v2.55v2.5h-3h3v2.5v2.5v2.5h-3h3v2.5v2.55h-3h3v2.5v2.5v2.5h-3h3v2.55v2.5h-3h3v2.55v2.45v2.5h-3h3v2.5v2.5h-3h3v2.55v2.5h-3h3
			v2.5v2.55h-3h3v2.5v2.5v2.5h-3h3v2.5h-3h3v2.55h-3h3v2.45v2.55v2.55h-3h3v2.45v2.5v2.55h-3h3v3.15h-29.9v-2.2v-1.35v-1.35v-1.3
			v-1.3v-1.3v-1.35v-1.3v-1.35v-1.3v-1.35v-1.3v-1.35v-1.35v-1.3v-1.3v-1.35v-1.3v-1.35v-1.3v-1.35v-1.3v-1.3v-1.35v-1.35v-1.3
			v-1.35v-1.3v-1.35v-1.3v-1.35v-1.3v-1.3v-1.35v-1.3v-1.35v-1.3v-1.35v-1.3v-1.3v-1.35v-1.3v-1.35v-1.3v-1.35v-1.35v-1.3v-1.35
			v-1.3v-1.35v-1.3v-1.3v-1.35v-1.3v-1.3v-1.35v-1.3v-1.35v-1.3v-1.35v-1.3v-1.35v-1.3v-1.35v-1.3v-1.35v-1.35v-1.3v-1.3v-1.35v-1.3
			v-1.35v-1.3v-1.35v-1.3v-1.3v-1.35v-1.3v-1.35v-1.35v-1.3v-1.35v-1.3v-1.35v-1.3v-1.3v-1.35v-1.3v-1.3v-1.35v-1.35v-1.3v-1.3
			v-1.35v-1.3v-1.35v-1.3v-1.35v-1.3v-1.35v-1.35v-1.3v-1.3v-1.35v-1.3v-1.3v-1.35v-1.3v-1.35v-1.3v-1.35v-1.3v-1.35v-1.3v-1.35
			v-1.3v-1.35v-1.3v-1.35v-1.3v-1.35v-1.3v-1.35v-1.3v-1.35v-1.3v-1.3v-1.35v-1.3v-1.35v-1.3v-1.35v-1.35v-1.3v-1.35v-1.3v-1.35
			v-1.3v-1.3v-1.3v-1.35v-1.3v-1.35v-1.3v-1.35v-1.3v-1.35v-1.3v-1.35v-1.3v-3.35h29.9v3.3h-3h3v3h-3h3V21.77z M531.97,26.77h-3.45
			H531.97z M531.97,34.32h-3H531.97z M531.97,39.32h-4H531.97z M531.97,29.27h-3H531.97z M531.97,49.32h-3H531.97z M531.97,64.42h-4
			H531.97z M531.97,59.37h-3H531.97z M531.97,54.37h-3H531.97z M531.97,71.97h-3H531.97z M531.97,76.97h-3.45H531.97z M531.97,87.02
			h-3H531.97z M531.97,89.52h-4H531.97z M531.97,79.47h-3H531.97z M531.97,66.92h-3H531.97z M531.97,102.02h-3.45H531.97z
			 M531.97,97.07h-3H531.97z M531.97,112.12h-3H531.97z M531.97,104.57h-3H531.97z M531.97,124.67h-3H531.97z M531.97,134.72h-3
			H531.97z M531.97,139.72h-4H531.97z M531.97,129.67h-3H531.97z M531.97,117.12h-3H531.97z M531.97,92.02h-3H531.97z M531.97,41.82
			h-3H531.97z M531.97,152.27h-3.45H531.97z M531.97,147.22h-3H531.97z M531.97,164.87h-4H531.97z M531.97,159.82h-3H531.97z
			 M531.97,154.77h-3H531.97z M531.97,182.37h-3H531.97z M531.97,172.32h-3H531.97z M531.97,177.37h-3.45H531.97z M531.97,187.42h-3
			H531.97z M531.97,167.32h-3H531.97z M531.97,199.92h-3H531.97z M531.97,207.47h-3H531.97z M531.97,209.97h-3H531.97z
			 M531.97,202.47h-3.45H531.97z M531.97,189.92h-4H531.97z M531.97,142.22h-3H531.97z M502.07,16.27h4.55H502.07z M505.42,17.57
			h-3.35H505.42z M505.92,22.87h-3.85H505.92z M505.42,21.57h-3.35H505.42z M505.42,20.22h-3.35H505.42z M505.42,18.92h-3.35H505.42
			z M505.42,24.22h-3.35H505.42z M505.42,30.82h-3.35H505.42z M505.42,28.17h-3.35H505.42z M505.42,25.52h-3.35H505.42z
			 M505.42,26.87h-3.35H505.42z M506.63,29.52h-4.55H506.63z M505.42,37.42h-3.35H505.42z M505.92,36.07h-3.85H505.92z
			 M505.42,34.77h-3.35H505.42z M505.42,33.42h-3.35H505.42z M505.42,32.12h-3.35H505.42z M505.42,38.72h-3.35H505.42z
			 M505.42,40.07h-3.35H505.42z M505.42,41.42h-3.35H505.42z M506.63,42.72h-4.55H506.63z M505.92,49.32h-3.85H505.92z
			 M505.42,44.07h-3.35H505.42z M505.42,45.37h-3.35H505.42z M505.42,46.72h-3.35H505.42z M505.42,48.02h-3.35H505.42z
			 M505.42,50.67h-3.35H505.42z M505.42,51.97h-3.35H505.42z M505.42,53.32h-3.35H505.42z M505.42,54.62h-3.35H505.42z
			 M506.63,55.97h-4.55H506.63z M505.42,61.27h-3.35H505.42z M505.42,59.92h-3.35H505.42z M505.42,58.62h-3.35H505.42z
			 M505.42,57.27h-3.35H505.42z M505.42,66.57h-3.35H505.42z M505.92,62.57h-3.85H505.92z M505.42,63.92h-3.35H505.42z
			 M505.42,65.22h-3.35H505.42z M505.42,67.87h-3.35H505.42z M505.42,70.52h-3.35H505.42z M505.42,71.87h-3.35H505.42z
			 M505.42,73.17h-3.35H505.42z M505.42,74.52h-3.35H505.42z M505.42,77.12h-3.35H505.42z M505.42,78.47h-3.35H505.42z
			 M505.42,79.77h-3.35H505.42z M505.92,75.82h-3.85H505.92z M506.63,69.22h-4.55H506.63z M505.42,86.42h-3.35H505.42z
			 M505.42,85.07h-3.35H505.42z M505.42,83.77h-3.35H505.42z M505.42,81.07h-3.35H505.42z M505.42,93.02h-3.35H505.42z
			 M505.42,91.72h-3.35H505.42z M505.42,90.37h-3.35H505.42z M505.92,89.07h-3.85H505.92z M505.42,87.72h-3.35H505.42z
			 M506.63,82.42h-4.55H506.63z M505.42,98.32h-3.35H505.42z M505.42,94.32h-3.35H505.42z M505.42,97.02h-3.35H505.42z
			 M505.42,104.92h-3.35H505.42z M505.42,103.57h-3.35H505.42z M505.92,102.27h-3.85H505.92z M505.42,100.97h-3.35H505.42z
			 M505.42,99.62h-3.35H505.42z M506.63,95.67h-4.55H506.63z M505.42,106.22h-3.35H505.42z M505.42,107.57h-3.35H505.42z
			 M505.42,110.22h-3.35H505.42z M505.42,111.57h-3.35H505.42z M505.42,116.82h-3.35H505.42z M505.92,115.52h-3.85H505.92z
			 M505.42,112.87h-3.35H505.42z M505.42,114.22h-3.35H505.42z M506.63,108.87h-4.55H506.63z M505.42,119.47h-3.35H505.42z
			 M505.42,118.17h-3.35H505.42z M505.42,120.82h-3.35H505.42z M505.42,123.47h-3.35H505.42z M505.92,128.77h-3.85H505.92z
			 M505.42,127.42h-3.35H505.42z M505.42,126.07h-3.35H505.42z M505.42,124.77h-3.35H505.42z M505.42,130.07h-3.35H505.42z
			 M506.63,122.12h-4.55H506.63z M505.42,134.07h-3.35H505.42z M505.42,132.72h-3.35H505.42z M505.42,131.42h-3.35H505.42z
			 M505.42,139.37h-3.35H505.42z M505.92,142.02h-3.85H505.92z M505.42,136.72h-3.35H505.42z M505.42,138.02h-3.35H505.42z
			 M505.42,140.67h-3.35H505.42z M506.63,135.37h-4.55H506.63z M505.42,143.32h-3.35H505.42z M505.42,144.62h-3.35H505.42z
			 M505.42,145.97h-3.35H505.42z M505.42,147.27h-3.35H505.42z M505.42,153.87h-3.35H505.42z M505.42,152.57h-3.35H505.42z
			 M505.42,151.22h-3.35H505.42z M505.42,149.92h-3.35H505.42z M506.63,148.57h-4.55H506.63z M505.42,159.22h-3.35H505.42z
			 M505.42,157.87h-3.35H505.42z M505.42,156.57h-3.35H505.42z M505.92,155.22h-3.85H505.92z M505.42,160.52h-3.35H505.42z
			 M505.42,163.17h-3.35H505.42z M505.42,164.47h-3.35H505.42z M505.42,165.82h-3.35H505.42z M505.42,167.12h-3.35H505.42z
			 M506.63,161.87h-4.55H506.63z M505.92,168.47h-3.85H505.92z M505.42,171.12h-3.35H505.42z M505.42,169.77h-3.35H505.42z
			 M505.42,172.42h-3.35H505.42z M505.42,173.72h-3.35H505.42z M505.42,176.37h-3.35H505.42z M505.42,177.72h-3.35H505.42z
			 M505.42,179.02h-3.35H505.42z M506.63,175.07h-4.55H506.63z M505.42,183.02h-3.35H505.42z M505.92,181.67h-3.85H505.92z
			 M505.42,180.37h-3.35H505.42z M505.42,184.37h-3.35H505.42z M505.42,185.67h-3.35H505.42z M505.42,190.97h-3.35H505.42z
			 M505.42,189.62h-3.35H505.42z M505.42,186.97h-3.35H505.42z M506.63,188.32h-4.55H506.63z M505.42,197.57h-3.35H505.42z
			 M505.42,196.22h-3.35H505.42z M505.92,194.92h-3.85H505.92z M505.42,193.62h-3.35H505.42z M505.42,192.27h-3.35H505.42z
			 M505.42,204.22h-3.35H505.42z M505.42,202.87h-3.35H505.42z M505.42,198.92h-3.35H505.42z M505.42,200.22h-3.35H505.42z
			 M506.63,201.57h-4.55H506.63z M505.42,209.47h-3.35H505.42z M505.92,208.17h-3.85H505.92z M505.42,205.52h-3.35H505.42z
			 M505.42,206.87h-3.35H505.42z M505.42,210.77h-3.35H505.42z M505.42,212.12h-3.35H505.42z M505.42,213.47h-3.35H505.42z"/>
		<path fill="none" stroke="#555555" stroke-width="0.5" stroke-linecap="round" stroke-linejoin="round" stroke-miterlimit="3" d="
			M531.97,19.22h-3 M531.97,24.27h-3 M531.97,21.77h-3 M531.97,26.77h-3.45 M531.97,31.77h-3 M531.97,36.77h-3 M531.97,34.32h-3
			 M531.97,39.32h-4 M531.97,29.27h-3 M531.97,16.22h-3 M531.97,46.82h-3 M531.97,44.32h-3 M531.97,51.87h-3.45 M531.97,49.32h-3
			 M531.97,56.87h-3 M531.97,61.92h-3 M531.97,64.42h-4 M531.97,59.37h-3 M531.97,54.37h-3 M531.97,69.42h-3 M531.97,74.47h-3
			 M531.97,71.97h-3 M531.97,76.97h-3.45 M531.97,84.52h-3 M531.97,82.02h-3 M531.97,87.02h-3 M531.97,89.52h-4 M531.97,79.47h-3
			 M531.97,66.92h-3 M531.97,99.52h-3 M531.97,102.02h-3.45 M531.97,94.52h-3 M531.97,97.07h-3 M531.97,109.62h-3 M531.97,114.62h-4
			 M531.97,112.12h-3 M531.97,107.07h-3 M531.97,104.57h-3 M531.97,127.17h-3.45 M531.97,122.17h-3 M531.97,124.67h-3
			 M531.97,119.62h-3 M531.97,137.22h-3 M531.97,132.17h-3 M531.97,134.72h-3 M531.97,139.72h-4 M531.97,129.67h-3 M531.97,117.12
			h-3 M531.97,92.02h-3 M531.97,41.82h-3 M531.97,149.77h-3 M531.97,152.27h-3.45 M531.97,144.72h-3 M531.97,147.22h-3
			 M531.97,162.32h-3 M531.97,157.27h-3 M531.97,164.87h-4 M531.97,159.82h-3 M531.97,154.77h-3 M531.97,179.87h-3 M531.97,184.92
			h-3 M531.97,182.37h-3 M531.97,169.82h-3 M531.97,174.82h-3 M531.97,172.32h-3 M531.97,177.37h-3.45 M531.97,187.42h-3
			 M531.97,167.32h-3 M531.97,197.47h-3 M531.97,194.92h-3 M531.97,192.42h-3 M531.97,199.92h-3 M531.97,212.52h-3 M531.97,205.02
			h-3 M531.97,207.47h-3 M531.97,209.97h-3 M531.97,202.47h-3.45 M531.97,189.92h-4 M531.97,142.22h-3 M502.07,16.27h4.55
			 M505.42,17.57h-3.35 M505.92,22.87h-3.85 M505.42,21.57h-3.35 M505.42,20.22h-3.35 M505.42,18.92h-3.35 M505.42,24.22h-3.35
			 M505.42,30.82h-3.35 M505.42,28.17h-3.35 M505.42,25.52h-3.35 M505.42,26.87h-3.35 M506.63,29.52h-4.55 M505.42,37.42h-3.35
			 M505.92,36.07h-3.85 M505.42,34.77h-3.35 M505.42,33.42h-3.35 M505.42,32.12h-3.35 M505.42,38.72h-3.35 M505.42,40.07h-3.35
			 M505.42,41.42h-3.35 M506.63,42.72h-4.55 M505.92,49.32h-3.85 M505.42,44.07h-3.35 M505.42,45.37h-3.35 M505.42,46.72h-3.35
			 M505.42,48.02h-3.35 M505.42,50.67h-3.35 M505.42,51.97h-3.35 M505.42,53.32h-3.35 M505.42,54.62h-3.35 M506.63,55.97h-4.55
			 M505.42,61.27h-3.35 M505.42,59.92h-3.35 M505.42,58.62h-3.35 M505.42,57.27h-3.35 M505.42,66.57h-3.35 M505.92,62.57h-3.85
			 M505.42,63.92h-3.35 M505.42,65.22h-3.35 M505.42,67.87h-3.35 M505.42,70.52h-3.35 M505.42,71.87h-3.35 M505.42,73.17h-3.35
			 M505.42,74.52h-3.35 M505.42,77.12h-3.35 M505.42,78.47h-3.35 M505.42,79.77h-3.35 M505.92,75.82h-3.85 M506.63,69.22h-4.55
			 M505.42,86.42h-3.35 M505.42,85.07h-3.35 M505.42,83.77h-3.35 M505.42,81.07h-3.35 M505.42,93.02h-3.35 M505.42,91.72h-3.35
			 M505.42,90.37h-3.35 M505.92,89.07h-3.85 M505.42,87.72h-3.35 M506.63,82.42h-4.55 M505.42,98.32h-3.35 M505.42,94.32h-3.35
			 M505.42,97.02h-3.35 M505.42,104.92h-3.35 M505.42,103.57h-3.35 M505.92,102.27h-3.85 M505.42,100.97h-3.35 M505.42,99.62h-3.35
			 M506.63,95.67h-4.55 M505.42,106.22h-3.35 M505.42,107.57h-3.35 M505.42,110.22h-3.35 M505.42,111.57h-3.35 M505.42,116.82h-3.35
			 M505.92,115.52h-3.85 M505.42,112.87h-3.35 M505.42,114.22h-3.35 M506.63,108.87h-4.55 M505.42,119.47h-3.35 M505.42,118.17
			h-3.35 M505.42,120.82h-3.35 M505.42,123.47h-3.35 M505.92,128.77h-3.85 M505.42,127.42h-3.35 M505.42,126.07h-3.35
			 M505.42,124.77h-3.35 M505.42,130.07h-3.35 M506.63,122.12h-4.55 M505.42,134.07h-3.35 M505.42,132.72h-3.35 M505.42,131.42
			h-3.35 M505.42,139.37h-3.35 M505.92,142.02h-3.85 M505.42,136.72h-3.35 M505.42,138.02h-3.35 M505.42,140.67h-3.35
			 M506.63,135.37h-4.55 M505.42,143.32h-3.35 M505.42,144.62h-3.35 M505.42,145.97h-3.35 M505.42,147.27h-3.35 M505.42,153.87
			h-3.35 M505.42,152.57h-3.35 M505.42,151.22h-3.35 M505.42,149.92h-3.35 M506.63,148.57h-4.55 M505.42,159.22h-3.35
			 M505.42,157.87h-3.35 M505.42,156.57h-3.35 M505.92,155.22h-3.85 M505.42,160.52h-3.35 M505.42,163.17h-3.35 M505.42,164.47
			h-3.35 M505.42,165.82h-3.35 M505.42,167.12h-3.35 M506.63,161.87h-4.55 M505.92,168.47h-3.85 M505.42,171.12h-3.35
			 M505.42,169.77h-3.35 M505.42,172.42h-3.35 M505.42,173.72h-3.35 M505.42,176.37h-3.35 M505.42,177.72h-3.35 M505.42,179.02
			h-3.35 M506.63,175.07h-4.55 M505.42,183.02h-3.35 M505.92,181.67h-3.85 M505.42,180.37h-3.35 M505.42,184.37h-3.35
			 M505.42,185.67h-3.35 M505.42,190.97h-3.35 M505.42,189.62h-3.35 M505.42,186.97h-3.35 M506.63,188.32h-4.55 M505.42,197.57
			h-3.35 M505.42,196.22h-3.35 M505.92,194.92h-3.85 M505.42,193.62h-3.35 M505.42,192.27h-3.35 M505.42,204.22h-3.35
			 M505.42,202.87h-3.35 M505.42,198.92h-3.35 M505.42,200.22h-3.35 M506.63,201.57h-4.55 M505.42,209.47h-3.35 M505.92,208.17
			h-3.85 M505.42,205.52h-3.35 M505.42,206.87h-3.35 M505.42,210.77h-3.35 M505.42,212.12h-3.35 M505.42,213.47h-3.35"/>
		<path fill="none" stroke="#333333" stroke-width="0.5" stroke-linecap="round" stroke-linejoin="round" stroke-miterlimit="3" d="
			M531.97,12.92h0.8v202.75h-0.8h-29.9v-2.2v-1.35v-1.35v-1.3v-1.3v-1.3v-1.35v-1.3v-1.35v-1.3v-1.35v-1.3v-1.35v-1.35v-1.3v-1.3
			v-1.35v-1.3v-1.35v-1.3v-1.35v-1.3v-1.3v-1.35v-1.35v-1.3v-1.35v-1.3v-1.35v-1.3v-1.35v-1.3v-1.3v-1.35v-1.3v-1.35v-1.3v-1.35
			v-1.3v-1.3v-1.35v-1.3v-1.35v-1.3v-1.35v-1.35v-1.3v-1.35v-1.3v-1.35v-1.3v-1.3v-1.35v-1.3v-1.3v-1.35v-1.3v-1.35v-1.3v-1.35v-1.3
			v-1.35v-1.3v-1.35v-1.3v-1.35v-1.35v-1.3v-1.3v-1.35v-1.3v-1.35v-1.3v-1.35v-1.3v-1.3v-1.35v-1.3v-1.35v-1.35v-1.3v-1.35v-1.3
			v-1.35v-1.3v-1.3v-1.35v-1.3v-1.3v-1.35v-1.35v-1.3v-1.3v-1.35v-1.3v-1.35v-1.3v-1.35v-1.3v-1.35v-1.35v-1.3v-1.3v-1.35v-1.3v-1.3
			v-1.35v-1.3v-1.35v-1.3v-1.35v-1.3v-1.35v-1.3v-1.35v-1.3v-1.35v-1.3v-1.35v-1.3v-1.35v-1.3v-1.35v-1.3v-1.35v-1.3v-1.3v-1.35
			v-1.3v-1.35v-1.3v-1.35v-1.35v-1.3v-1.35v-1.3v-1.35v-1.3v-1.3v-1.3v-1.35v-1.3v-1.35v-1.3v-1.35v-1.3v-1.35v-1.3v-1.35v-1.3
			v-3.35H531.97L531.97,12.92z M531.97,16.22v-3.3 M531.97,21.77v-2.55v-3 M531.97,26.77v-2.5v-2.5 M531.97,29.27v-2.5
			 M531.97,34.32v-2.55v-2.5 M531.97,39.32v-2.55v-2.45 M531.97,41.82v-2.5 M531.97,49.32v-2.5v-2.5v-2.5 M531.97,54.37v-2.5v-2.55
			 M531.97,59.37v-2.5v-2.5 M531.97,64.42v-2.5v-2.55 M531.97,66.92v-2.5 M531.97,71.97v-2.55v-2.5 M531.97,76.97v-2.5v-2.5
			 M531.97,79.47v-2.5 M531.97,87.02v-2.5v-2.5v-2.55 M531.97,89.52v-2.5 M531.97,92.02v-2.5 M531.97,102.02v-2.5v-2.45v-2.55v-2.5
			 M531.97,104.57v-2.55 M531.97,112.12v-2.5v-2.55v-2.5 M531.97,117.12v-2.5v-2.5 M531.97,129.67v-2.5v-2.5v-2.5v-2.55v-2.5
			 M531.97,139.72v-2.5v-2.5v-2.55v-2.5 M531.97,142.22v-2.5 M531.97,152.27v-2.5v-2.55v-2.5v-2.5 M531.97,154.77v-2.5
			 M531.97,164.87v-2.55v-2.5v-2.55v-2.5 M531.97,167.32v-2.45 M531.97,182.37v-2.5v-2.5v-2.55v-2.5v-2.5v-2.5 M531.97,187.42v-2.5
			v-2.55 M531.97,189.92v-2.5 M531.97,199.92v-2.45v-2.55v-2.5v-2.5 M531.97,202.47v-2.55 M531.97,215.67v-3.15v-2.55v-2.5v-2.45
			v-2.55"/>
		<g>
			<rect x="512.59" y="17.58" fill="#6D7774" fill-opacity="0.3294" width="11.73" height="195.92"/>
		</g>
		<g>
			<rect x="512.99" y="17.43" fill="#8A9590" width="1" height="195.92"/>
		</g>
		<g>
			<rect x="523.47" y="17.43" fill="#EEF0EF" width="1" height="195.92"/>
		</g>
	</g>
</g>
</svg>
