<?xml version="1.0" encoding="utf-8"?>
<!-- Generator: Adobe Illustrator 16.0.0, SVG Export Plug-In . SVG Version: 6.00 Build 0)  -->
<!DOCTYPE svg PUBLIC "-//W3C//DTD SVG 1.1//EN" "http://www.w3.org/Graphics/SVG/1.1/DTD/svg11.dtd">
<svg version="1.1" id="Layer_2" xmlns="http://www.w3.org/2000/svg" xmlns:xlink="http://www.w3.org/1999/xlink" x="0px" y="0px"
	 width="428px" height="442px" viewBox="0 0 428 442" enable-background="new 0 0 428 442" xml:space="preserve">
<g>
	<g>
		<path fill="none" stroke="#FF0000" stroke-width="3" stroke-linecap="round" stroke-linejoin="round" stroke-miterlimit="3" d="
			M265.05,371.5c-13.767-3.366-27.916,1.55-42.45,14.75c-3.533,3.366-7.699,3.95-12.5,1.75c-12.467-9.033-29.55-10.434-51.25-4.2
			c-17.167,5.468-30.117,3.267-38.85-6.6C65.667,318.5,31.533,249.134,17.6,169.1C3.667,89.033,11.817,43.05,42.05,31.15"/>
	</g>
	<g>
		<path fill="none" stroke="#009933" stroke-width="3" stroke-linecap="round" stroke-linejoin="round" stroke-miterlimit="3" d="
			M249.15,362.35c-10.334-0.699-17.885,1.034-22.65,5.2c-4.634,5.634-11.2,8.367-19.7,8.2c-5.267,0.434-11.616-0.7-19.05-3.4
			c-7.434-2.732-16.2-3.365-26.3-1.898c-18.4,3.5-28.3,2.1-29.7-4.2c-5.667-27.134-12.917-46.134-21.75-57
			c-34.067-41.866-54.6-86.517-61.6-133.95c-7.033-47.433-12.316-78.6-15.85-93.5c-1.133-4.8-1.816-9.133-2.05-13
			c-0.367-5.9,0.3-10.75,2-14.55c0.633-1.467,1.433-2.783,2.4-3.95c4.7-5.633,7.467-8.566,8.3-8.8"/>
	</g>
	<g>
		<g>
			
				<radialGradient id="SVGID_1_" cx="276.1992" cy="207.2622" r="59.9495" gradientTransform="matrix(0.9896 -0.1438 -0.4295 -2.955 211.9517 1004.1843)" gradientUnits="userSpaceOnUse">
				<stop  offset="0" style="stop-color:#A9AEB1"/>
				<stop  offset="0.6157" style="stop-color:#3C3F41"/>
				<stop  offset="0.8627" style="stop-color:#1C1E1F"/>
				<stop  offset="1" style="stop-color:#050607"/>
			</radialGradient>
			<path fill="url(#SVGID_1_)" d="M324.05,428.15l1.05-198.95l0.052-15.55l47.398,0.55c4.467,0.167,7.25,2.899,8.352,8.2l1.25,6.8
				L412.6,395.9c0.534,8.933-3.683,14.633-12.648,17.1L324.05,428.15z"/>
			
				<radialGradient id="SVGID_2_" cx="276.1992" cy="207.2622" r="59.9495" gradientTransform="matrix(0.9896 -0.1438 -0.4295 -2.955 211.9517 1004.1843)" gradientUnits="userSpaceOnUse">
				<stop  offset="0" style="stop-color:#A9AEB1"/>
				<stop  offset="0.6157" style="stop-color:#3C3F41"/>
				<stop  offset="0.8627" style="stop-color:#1C1E1F"/>
				<stop  offset="1" style="stop-color:#050607"/>
			</radialGradient>
			<path fill="url(#SVGID_2_)" d="M324.05,428.15l1.05-198.95l0.052-15.55l47.398,0.55c4.467,0.167,7.25,2.899,8.352,8.2l1.25,6.8
				L412.6,395.9c0.534,8.933-3.683,14.633-12.648,17.1L324.05,428.15z"/>
			
				<linearGradient id="SVGID_3_" gradientUnits="userSpaceOnUse" x1="207.7021" y1="125.498" x2="230.0272" y2="125.498" gradientTransform="matrix(1 0 0 -1 94 447)">
				<stop  offset="0" style="stop-color:#434648"/>
				<stop  offset="0.2196" style="stop-color:#B9BEC2"/>
				<stop  offset="0.2863" style="stop-color:#C4C8CC"/>
				<stop  offset="0.3765" style="stop-color:#191E22"/>
				<stop  offset="1" style="stop-color:#000000"/>
			</linearGradient>
			<path fill="url(#SVGID_3_)" d="M324.05,428.15l-8.95,1l-4.148,0.448c-1.602,0.4-2.483,0.584-2.65,0.552c-0.065,0-0.116,0-0.148,0
				c-0.268-0.067-0.5-0.117-0.7-0.15c-0.268-0.1-0.483-0.184-0.65-0.25c-0.3-0.1-0.55-0.2-0.75-0.3c-2.366-1.066-3.649-3.2-3.85-6.4
				l-0.5-7.45v-192c0.233-5.967,2.483-9.516,6.75-10.648l0.398-0.101l16.302,0.801L325.1,229.2L324.05,428.15z"/>
			
				<linearGradient id="SVGID_4_" gradientUnits="userSpaceOnUse" x1="207.7021" y1="125.498" x2="230.0272" y2="125.498" gradientTransform="matrix(1 0 0 -1 94 447)">
				<stop  offset="0" style="stop-color:#434648"/>
				<stop  offset="0.2196" style="stop-color:#B9BEC2"/>
				<stop  offset="0.2863" style="stop-color:#C4C8CC"/>
				<stop  offset="0.3765" style="stop-color:#191E22"/>
				<stop  offset="1" style="stop-color:#000000"/>
			</linearGradient>
			<path fill="url(#SVGID_4_)" d="M324.05,428.15l-8.95,1l-4.148,0.448c-1.602,0.4-2.483,0.584-2.65,0.552c-0.065,0-0.116,0-0.148,0
				c-0.268-0.067-0.5-0.117-0.7-0.15c-0.268-0.1-0.483-0.184-0.65-0.25c-0.3-0.1-0.55-0.2-0.75-0.3c-2.366-1.066-3.649-3.2-3.85-6.4
				l-0.5-7.45v-192c0.233-5.967,2.483-9.516,6.75-10.648l0.398-0.101l16.302,0.801L325.1,229.2L324.05,428.15z"/>
			
				<linearGradient id="SVGID_5_" gradientUnits="userSpaceOnUse" x1="207.8164" y1="187.3774" x2="159.7386" y2="-3.9215" gradientTransform="matrix(1 0 0 -1 94 447)">
				<stop  offset="0" style="stop-color:#767D83"/>
				<stop  offset="0.3765" style="stop-color:#474C4F"/>
				<stop  offset="0.7451" style="stop-color:#3C4143"/>
				<stop  offset="0.8314" style="stop-color:#1C1E1F"/>
				<stop  offset="0.8902" style="stop-color:#050607"/>
			</linearGradient>
			<path fill="url(#SVGID_5_)" d="M308.45,212.95c-4.267,1.134-6.517,4.683-6.75,10.649v191.999l0.5,7.45
				c0.2,3.2,1.483,5.334,3.85,6.4c0.2,0.1,0.45,0.2,0.75,0.3l-55.5-17.35c-4.1-1.268-6.149-3.602-6.149-7l12.399-159.05
				c0.601-5.633,4.617-10.466,12.05-14.5l36.2-18.25L308.45,212.95z"/>
			
				<linearGradient id="SVGID_6_" gradientUnits="userSpaceOnUse" x1="207.8164" y1="187.3774" x2="159.7386" y2="-3.9215" gradientTransform="matrix(1 0 0 -1 94 447)">
				<stop  offset="0" style="stop-color:#767D83"/>
				<stop  offset="0.3765" style="stop-color:#474C4F"/>
				<stop  offset="0.7451" style="stop-color:#3C4143"/>
				<stop  offset="0.8314" style="stop-color:#1C1E1F"/>
				<stop  offset="0.8902" style="stop-color:#050607"/>
			</linearGradient>
			<path fill="url(#SVGID_6_)" d="M308.45,212.95c-4.267,1.134-6.517,4.683-6.75,10.649v191.999l0.5,7.45
				c0.2,3.2,1.483,5.334,3.85,6.4c0.2,0.1,0.45,0.2,0.75,0.3l-55.5-17.35c-4.1-1.268-6.149-3.602-6.149-7l12.399-159.05
				c0.601-5.633,4.617-10.466,12.05-14.5l36.2-18.25L308.45,212.95z"/>
		</g>
		<g>
			
				<radialGradient id="SVGID_7_" cx="210.4883" cy="344.6016" r="41.191" gradientTransform="matrix(0.9963 0.0861 1.271 -14.7017 -357.8823 5313.7656)" gradientUnits="userSpaceOnUse">
				<stop  offset="0" style="stop-color:#767D83;stop-opacity:0"/>
				<stop  offset="0.3765" style="stop-color:#474C4F;stop-opacity:0.0078"/>
				<stop  offset="0.6392" style="stop-color:#3C4143;stop-opacity:0.7333"/>
				<stop  offset="0.8902" style="stop-color:#050607"/>
			</radialGradient>
			<path fill="url(#SVGID_7_)" d="M308.45,212.95c-4.267,1.134-6.517,4.683-6.75,10.649v191.999l0.5,7.45
				c0.2,3.2,1.483,5.334,3.85,6.4c0.2,0.1,0.45,0.2,0.75,0.3l-55.5-17.35c-4.1-1.268-6.149-3.602-6.149-7l12.399-159.05
				c0.601-5.633,4.617-10.466,12.05-14.5l36.2-18.25L308.45,212.95z"/>
		</g>
		<g>
			
				<radialGradient id="SVGID_8_" cx="225.667" cy="79.0996" r="183.7314" gradientTransform="matrix(0.9854 0.1702 0.1177 -0.6814 59.6028 331.7431)" gradientUnits="userSpaceOnUse">
				<stop  offset="0" style="stop-color:#767D83;stop-opacity:0"/>
				<stop  offset="0.3765" style="stop-color:#474C4F;stop-opacity:0.0078"/>
				<stop  offset="0.6078" style="stop-color:#3C4143;stop-opacity:0.6588"/>
				<stop  offset="0.7647" style="stop-color:#111314;stop-opacity:0.9176"/>
				<stop  offset="0.8902" style="stop-color:#050607"/>
			</radialGradient>
			<path fill="url(#SVGID_8_)" d="M251.3,412.4c-4.1-1.268-6.149-3.602-6.149-7l7.899-101.051h48.65V415.6l0.5,7.45
				c0.2,3.2,1.483,5.334,3.85,6.4c0.2,0.1,0.45,0.2,0.75,0.3L251.3,412.4z"/>
		</g>
		<g>
			
				<radialGradient id="SVGID_9_" cx="260.4424" cy="-10.3633" r="122.4094" gradientTransform="matrix(0.999 0.0447 0.0272 -0.6092 86.8632 334.7469)" gradientUnits="userSpaceOnUse">
				<stop  offset="0" style="stop-color:#000000;stop-opacity:0"/>
				<stop  offset="0.7647" style="stop-color:#000000;stop-opacity:0"/>
				<stop  offset="0.898" style="stop-color:#000000;stop-opacity:0.8235"/>
				<stop  offset="1" style="stop-color:#000000"/>
			</radialGradient>
			<path fill="url(#SVGID_9_)" d="M412.6,395.9c0.534,8.933-3.683,14.633-12.648,17.1l-85.4,17c-2.5,0.467-4.25,0.583-5.25,0.35
				c-1.033-0.198-1.648-0.315-1.85-0.35c-0.268-0.1-0.483-0.184-0.65-0.25c-0.3-0.1-0.55-0.2-0.75-0.3
				c-2.365-1.066-3.648-3.2-3.85-6.4l-0.5-7.45v-37.55H409.35L412.6,395.9z"/>
		</g>
		<g>
			
				<radialGradient id="SVGID_10_" cx="256.4502" cy="-83.3228" r="159.2885" gradientTransform="matrix(1 0 0 -0.4021 94 237.3452)" gradientUnits="userSpaceOnUse">
				<stop  offset="0" style="stop-color:#000000;stop-opacity:0"/>
				<stop  offset="0.7647" style="stop-color:#000000;stop-opacity:0"/>
				<stop  offset="0.898" style="stop-color:#000000;stop-opacity:0.8235"/>
				<stop  offset="1" style="stop-color:#000000"/>
			</radialGradient>
			<path fill="url(#SVGID_10_)" d="M372.55,214.2c4.467,0.167,7.25,2.899,8.352,8.2l1.25,6.8l5.05,27.899h-85.5v-33.5
				c0.232-5.968,2.482-9.517,6.75-10.649l0.398-0.101l16.302,0.801L372.55,214.2z"/>
		</g>
		
			<radialGradient id="SVGID_11_" cx="422.2441" cy="106.793" r="33.7371" gradientTransform="matrix(0.9303 0 0 -1.2216 -40.6529 385.7778)" gradientUnits="userSpaceOnUse">
			<stop  offset="0" style="stop-color:#FFFFFF;stop-opacity:0.3569"/>
			<stop  offset="1" style="stop-color:#FFFFFF;stop-opacity:0"/>
		</radialGradient>
		<path fill="url(#SVGID_11_)" d="M324.637,226.059c9.831-7.538,19.012-11.306,27.538-11.303c8.528,0,15.8,3.953,21.816,11.861
			c6.047,7.939,9.069,17.506,9.069,28.699c0,8.869-1.906,16.717-5.722,23.537l-42.144,10.42c-1.706-1.517-4.071-5.308-7.095-11.373
			c-3.021-6.068-6.813-14.342-11.373-24.814C312.169,242.611,314.804,233.604,324.637,226.059z"/>
		
			<radialGradient id="SVGID_12_" cx="422.2441" cy="106.7925" r="33.7373" gradientTransform="matrix(0.9303 0 0 -1.2216 -41.1529 524.3774)" gradientUnits="userSpaceOnUse">
			<stop  offset="0" style="stop-color:#FFFFFF;stop-opacity:0.3608"/>
			<stop  offset="1" style="stop-color:#FFFFFF;stop-opacity:0"/>
		</radialGradient>
		<path fill="url(#SVGID_12_)" d="M324.137,364.659c9.831-7.538,19.012-11.306,27.538-11.304c8.528,0,15.8,3.953,21.816,11.861
			c6.047,7.938,9.069,17.506,9.069,28.7c0,8.869-1.906,16.715-5.722,23.537l-42.144,10.42c-1.706-1.518-4.071-5.308-7.095-11.373
			c-3.021-6.07-6.813-14.342-11.373-24.815C311.669,381.211,314.304,372.202,324.137,364.659z"/>
		<g>
			
				<linearGradient id="SVGID_13_" gradientUnits="userSpaceOnUse" x1="-945.3745" y1="419.2334" x2="-868.2281" y2="419.2334" gradientTransform="matrix(-0.406 -0.9139 -0.93 0.3697 387.7731 -645.2765)">
				<stop  offset="0" style="stop-color:#6C7274"/>
				<stop  offset="1" style="stop-color:#292C2D"/>
			</linearGradient>
			<path fill="url(#SVGID_13_)" d="M318.65,318.5c-0.268-13.333,2.532-24.934,8.398-34.8c0.4-0.733,0.852-1.45,1.352-2.15
				c7.267-10.967,16.433-16.399,27.5-16.3c11.032,0.066,20.716,5.65,29.05,16.75c8,10.634,12.517,23.3,13.55,38
				c0.033,0.7,0.066,1.417,0.1,2.15c0.2,3.365,0.185,6.615-0.05,9.75c-0.7,11.5-3.916,21.55-9.648,30.148
				c-0.268,0.367-0.534,0.733-0.802,1.102c-0.5,0.699-1.017,1.398-1.55,2.1c-0.033,0.066-0.065,0.116-0.1,0.15
				c-0.4,0.5-0.8,0.982-1.2,1.449c-1.267,1.5-2.583,2.851-3.95,4.051c-0.934,0.832-1.883,1.6-2.85,2.3
				c-4.935,3.434-10.417,5.166-16.45,5.2c-0.2,0-0.384,0-0.55,0c-9.134-0.102-17.352-3.95-24.65-11.551
				c-1.166-1.134-2.267-2.367-3.3-3.699c-0.4-0.534-0.816-1.067-1.25-1.602c-5.667-7.6-9.55-16.25-11.65-25.949
				c-0.198-0.699-0.35-1.434-0.448-2.199c-0.768-3.801-1.233-7.784-1.4-11.95C318.684,320.482,318.65,319.5,318.65,318.5z
				 M320.2,318.5c0,1,0.017,2,0.05,3c0.233,4.134,0.7,8.1,1.4,11.9c0.166,0.767,0.333,1.5,0.5,2.199
				c2.1,9.133,5.833,17.283,11.198,24.449c0.802,1.066,1.635,2.102,2.5,3.102c1.167,1.332,2.367,2.565,3.602,3.699
				c6.565,6.133,13.866,9.25,21.898,9.351c0.2,0,0.417,0,0.65,0c4.467-0.066,8.6-1.066,12.4-3c2.466-1.267,4.767-2.935,6.898-5
				c0.467-0.435,0.917-0.884,1.352-1.351c0.466-0.467,0.916-0.949,1.35-1.449c0.634-0.733,1.233-1.483,1.8-2.25
				c0.268-0.334,0.518-0.685,0.75-1.051c0.367-0.5,0.733-1.033,1.102-1.601c5.433-8.2,8.55-17.733,9.35-28.601
				c0.2-3.133,0.217-6.399,0.05-9.801C397.017,321.4,397,320.7,397,320c-1.033-14.1-5.4-26.232-13.1-36.4
				c-8-10.666-17.268-16.05-27.802-16.148c-10.633-0.102-19.448,5.133-26.448,15.699c-0.968,1.399-1.834,2.851-2.602,4.351
				C322.316,296.434,320.033,306.768,320.2,318.5z"/>
		</g>
		<g>
			
				<radialGradient id="SVGID_14_" cx="104.8794" cy="76.9639" r="39.1284" gradientTransform="matrix(0.9667 -0.2559 -0.3961 -1.3942 290.0299 456.3584)" gradientUnits="userSpaceOnUse">
				<stop  offset="0" style="stop-color:#95989D"/>
				<stop  offset="0.8118" style="stop-color:#72757A"/>
				<stop  offset="0.9294" style="stop-color:#E5E8ED"/>
			</radialGradient>
			<path fill="url(#SVGID_14_)" d="M363.65,368.1c0.433,0.034,0.865,0.051,1.3,0.051c2.8,0.033,5.467-0.399,8-1.301
				c1.133-0.398,2.25-0.883,3.35-1.449c1.167-0.633,2.283-1.383,3.352-2.25c0.565-0.434,1.115-0.899,1.648-1.399
				c1.9-1.733,3.65-3.783,5.25-6.149c0.2-0.268,0.384-0.551,0.55-0.851c1.534-2.333,2.817-4.8,3.852-7.399
				c2.232-4.733,3.633-9.884,4.2-15.449c0.333-3.135,0.416-6.418,0.25-9.852c-0.034-0.699-0.084-1.383-0.15-2.05
				c-0.566-6.233-1.95-12.033-4.15-17.399c-1.767-4.834-4.166-9.283-7.198-13.351c-6.733-9.101-14.518-13.685-23.352-13.75
				c-0.467,0-0.967,0.017-1.5,0.05c-0.533-0.066-1.065-0.1-1.6-0.1c-9.834-0.066-18,4.398-24.5,13.398
				c-2.5,3.5-4.467,7.317-5.9,11.45c-1.898,5.533-2.833,11.601-2.8,18.2c0,1,0.033,1.982,0.1,2.95c0.268,4.233,0.867,8.233,1.802,12
				c0.133,0.733,0.315,1.45,0.55,2.149c2,6.934,5.232,13.184,9.7,18.75c3,3.666,6.183,6.601,9.55,8.801
				c1.6,1.033,3.25,1.916,4.95,2.648c0.966,0.4,1.966,0.75,3,1.051c2.6,0.801,5.3,1.217,8.1,1.25c0.1,0,0.184,0,0.25,0
				C362.75,368.1,363.217,368.1,363.65,368.1z M327.05,288.8c0.935-1.767,1.935-3.483,3-5.149
				c6.867-10.434,15.566-15.601,26.102-15.5c10.398,0.101,19.565,5.416,27.5,15.949c7.532,10.034,11.8,22,12.8,35.9
				c0.065,0.7,0.116,1.4,0.148,2.1c0.167,3.4,0.135,6.668-0.1,9.801c-0.767,10.666-3.833,20.033-9.2,28.101
				c-0.232,0.366-0.482,0.733-0.75,1.101c-0.5,0.699-1,1.383-1.5,2.051c-0.6,0.767-1.217,1.517-1.85,2.25
				c-0.467,0.5-0.935,0.982-1.4,1.449c-0.166,0.166-0.333,0.334-0.5,0.5c-2.633,2.533-5.482,4.482-8.55,5.851
				c-3.333,1.467-6.917,2.217-10.75,2.25c-0.233,0-0.45,0-0.65,0c-7.698-0.033-14.698-2.899-21-8.601
				c-1.267-1.101-2.5-2.334-3.698-3.699c-1.034-1.135-2.034-2.352-3-3.65c-5.233-7-8.867-14.967-10.9-23.9
				c-0.167-0.699-0.333-1.433-0.5-2.199c-0.767-3.801-1.25-7.766-1.45-11.899c-0.065-1-0.1-2-0.1-3
				C320.566,307.3,322.684,297.4,327.05,288.8z"/>
			<path fill="#1B1E23" d="M359.05,275.55c9.102,0.533,17.134,5.101,24.102,13.7c3.333,4.066,5.982,8.518,7.948,13.35
				c2.2,5.367,3.584,11.168,4.15,17.4c0.066,0.667,0.116,1.35,0.15,2.05c0.166,3.435,0.083,6.718-0.25,9.851
				c-0.567,5.566-1.968,10.717-4.2,15.449c-1.2,2.602-2.617,5.067-4.25,7.4c-0.033,0.066-0.084,0.134-0.15,0.2
				c-1.633,2.267-3.383,4.233-5.25,5.899c-0.934,0.834-1.866,1.601-2.8,2.301c-1.2,0.865-2.45,1.615-3.75,2.25
				c-1.2,0.565-2.45,1.05-3.75,1.449c-2.3,0.767-4.75,1.184-7.35,1.25c-0.435,0-0.9,0-1.4,0c-0.066,0-0.15,0-0.25,0
				c-2.8-0.033-5.5-0.449-8.1-1.25c-1.034-0.301-2.034-0.649-3-1.051c-1.7-0.732-3.352-1.615-4.95-2.648
				c-3.367-2.2-6.55-5.135-9.55-8.801c-4.468-5.566-7.7-11.816-9.7-18.75c-0.233-0.699-0.417-1.416-0.55-2.149
				c-0.935-3.767-1.534-7.767-1.802-12c-0.065-0.968-0.1-1.95-0.1-2.95c-0.033-6.6,0.9-12.667,2.8-18.2
				c1.435-4.133,3.4-7.95,5.9-11.45c6.5-9,14.666-13.466,24.5-13.398C357.983,275.45,358.517,275.482,359.05,275.55z M391.1,343.1
				c1.302-3.5,2.167-7.232,2.602-11.199c0.366-3.133,0.45-6.416,0.25-9.851c-0.033-0.7-0.084-1.383-0.15-2.05
				c-0.398-4.8-1.3-9.3-2.7-13.5c-1.966-5.866-4.898-11.184-8.8-15.95c-6.666-8.267-14.366-12.666-23.1-13.2
				c-0.566-0.033-1.117-0.065-1.65-0.1c-3.232,0-6.267,0.5-9.1,1.5c-5.5,1.866-10.3,5.65-14.4,11.35
				c-3.333,4.668-5.666,9.867-7,15.602c-0.934,4-1.383,8.267-1.35,12.8c-0.033,1-0.018,2,0.05,3c0.2,3.435,0.634,6.717,1.3,9.851
				c0.334,1.434,0.7,2.851,1.102,4.25c1.933,6.434,5,12.267,9.198,17.5c3.7,4.5,7.7,7.851,12,10.051
				c0.534,0.267,1.052,0.533,1.552,0.8c0.333,0.1,0.648,0.217,0.948,0.35c3.233,1.267,6.617,1.935,10.15,2c0.066,0,0.134,0,0.2,0
				c0.5,0,0.967,0,1.398,0c2.135-0.1,4.185-0.399,6.15-0.899c1.9-0.533,3.733-1.283,5.5-2.25c2.134-1.166,4.15-2.684,6.05-4.551
				c1.533-1.5,2.983-3.216,4.352-5.148c0.333-0.434,0.633-0.852,0.898-1.25C388.45,349.366,389.967,346.333,391.1,343.1z"/>
			
				<radialGradient id="SVGID_15_" cx="238.8809" cy="116.2822" r="63.3891" gradientTransform="matrix(1 0.0041 0.004 -0.954 92.7917 432.636)" gradientUnits="userSpaceOnUse">
				<stop  offset="0" style="stop-color:#42454A"/>
				<stop  offset="1" style="stop-color:#1A1D22"/>
			</radialGradient>
			<path fill="url(#SVGID_15_)" d="M391.1,306.5c1.268,4.2,2.102,8.7,2.5,13.5c0.034,0.667,0.067,1.35,0.102,2.05
				c0.166,3.435,0.1,6.718-0.2,9.851c-0.434,3.967-1.233,7.699-2.4,11.199c-1.133,3.233-2.648,6.268-4.55,9.102
				c-0.267,0.398-0.565,0.816-0.898,1.25c-1.367,1.934-2.817,3.648-4.352,5.148c-1.898,1.867-3.916,3.385-6.05,4.551
				c-1.767,0.967-3.6,1.717-5.5,2.25c-1.967,0.5-4.017,0.801-6.15,0.899c-0.433,0-0.898,0-1.398,0c-0.066,0-0.134,0-0.2,0
				c-3.533-0.065-6.917-0.733-10.15-2c-0.3-0.133-0.615-0.25-0.948-0.35c-0.5-0.267-1.018-0.533-1.552-0.8
				c-4.3-2.2-8.3-5.551-12-10.051c-4.198-5.233-7.267-11.066-9.198-17.5c-0.4-1.399-0.768-2.816-1.102-4.25
				c-0.666-3.134-1.1-6.416-1.3-9.851c-0.066-1-0.083-2-0.05-3c-0.033-4.533,0.416-8.8,1.35-12.8c1.334-5.733,3.667-10.934,7-15.602
				c4.102-5.699,8.9-9.482,14.4-11.35c2.833-1,5.866-1.5,9.1-1.5c0.533,0.033,1.084,0.066,1.65,0.1
				c8.733,0.534,16.434,4.935,23.1,13.2C386.2,295.316,389.134,300.634,391.1,306.5z"/>
			<path fill="#12171A" d="M327.05,288.8c-4.366,8.601-6.482,18.5-6.35,29.7c0,1,0.033,2,0.1,3c0.2,4.134,0.685,8.1,1.45,11.9
				c0.167,0.767,0.333,1.5,0.5,2.199c2.033,8.934,5.667,16.899,10.9,23.899c0.966,1.3,1.966,2.517,3,3.649
				c1.198,1.367,2.433,2.601,3.698,3.699c6.302,5.7,13.302,8.567,21,8.602c0.2,0,0.417,0,0.65,0c3.833-0.033,7.417-0.783,10.75-2.25
				c3.066-1.367,5.917-3.316,8.55-5.852c0.167-0.166,0.334-0.332,0.5-0.5c0.467-0.466,0.935-0.949,1.4-1.449
				c0.633-0.732,1.25-1.482,1.85-2.25c0.5-0.666,1-1.351,1.5-2.051c0.268-0.365,0.518-0.732,0.75-1.1
				c5.367-8.066,8.435-17.434,9.2-28.1c0.233-3.135,0.267-6.4,0.1-9.801c-0.032-0.699-0.083-1.399-0.148-2.101
				c-1-13.899-5.268-25.866-12.8-35.899c-7.935-10.533-17.102-15.851-27.5-15.949c-10.534-0.102-19.233,5.065-26.102,15.5
				C328.983,285.316,327.983,287.033,327.05,288.8z M327.05,284.95c0.566-1,1.167-1.968,1.8-2.9
				c7.135-10.8,16.167-16.166,27.102-16.1c10.898,0.1,20.467,5.633,28.7,16.6c7.833,10.435,12.282,22.917,13.35,37.45
				c0.066,0.7,0.116,1.417,0.15,2.15c0.166,3.365,0.148,6.615-0.052,9.75c-0.767,11.267-3.966,21.133-9.6,29.6
				c-0.366,0.566-0.733,1.116-1.1,1.65c-0.302,0.365-0.584,0.75-0.852,1.148c-0.267,0.334-0.55,0.7-0.85,1.102
				c-0.435,0.466-0.852,0.949-1.25,1.449c-1,1.166-2.05,2.232-3.15,3.199c-1.3,1.2-2.684,2.25-4.148,3.15
				c-4.567,2.934-9.617,4.416-15.15,4.449c-0.2,0-0.384,0-0.55,0c-8.8-0.101-16.733-3.699-23.8-10.801
				c-1.135-1.133-2.25-2.365-3.352-3.699c-0.565-0.699-1.116-1.399-1.648-2.101c-5.567-7.467-9.4-15.95-11.5-25.45
				c-0.2-0.699-0.352-1.433-0.45-2.199c-0.768-3.801-1.233-7.767-1.4-11.899c-0.065-1-0.1-2-0.1-3
				C318.967,305.667,321.583,294.482,327.05,284.95z"/>
		</g>
		<g>
			<path d="M402.55,371.05c1.3,2.468,1.95,5.45,1.95,8.95s-0.65,6.467-1.95,8.9c-1.2,2.332-2.648,3.582-4.35,3.75
				c-0.134,0-0.268,0-0.4,0c-1.833,0-3.398-1.25-4.7-3.75c-0.666-1.233-1.148-2.602-1.448-4.102c-0.334-1.467-0.5-3.066-0.5-4.8
				s0.166-3.333,0.5-4.8c0.3-1.5,0.782-2.885,1.448-4.15c1.302-2.434,2.867-3.648,4.7-3.648c0.134,0,0.268,0,0.4,0
				C399.9,367.533,401.35,368.75,402.55,371.05z"/>
		</g>
		<g>
			
				<linearGradient id="SVGID_16_" gradientUnits="userSpaceOnUse" x1="308.0957" y1="75.9497" x2="308.1427" y2="62.1498" gradientTransform="matrix(1 0 0 -1 94 447)">
				<stop  offset="0.0039" style="stop-color:#171A1F"/>
				<stop  offset="0.2" style="stop-color:#1E2025"/>
				<stop  offset="0.4588" style="stop-color:#44474C"/>
				<stop  offset="0.7373" style="stop-color:#1D1E20"/>
				<stop  offset="1" style="stop-color:#000000"/>
			</linearGradient>
			<path fill="url(#SVGID_16_)" d="M411.8,369.65c-0.1,0.033-0.184,0.065-0.25,0.1c-1.065,0.268-1.916,1.4-2.55,3.4
				c-0.634,1.933-0.866,4.148-0.7,6.648c0.134,2.5,0.634,4.551,1.5,6.15c0.602,1.1,1.233,1.732,1.9,1.898l-14.15,2.2
				c-0.2,0.033-0.383,0.05-0.55,0.05c-1.033,0-1.983-0.75-2.85-2.25c-0.935-1.8-1.5-4.148-1.7-7.05
				c-0.134-2.866,0.116-5.435,0.75-7.7c0.767-2.267,1.783-3.566,3.05-3.898c0.134-0.033,0.283-0.066,0.45-0.102
				c0.133,0,0.232,0.018,0.3,0.051L411.8,369.65z"/>
			
				<linearGradient id="SVGID_17_" gradientUnits="userSpaceOnUse" x1="316.875" y1="83.563" x2="319.3647" y2="52.9737" gradientTransform="matrix(1 0 0 -1 94 447)">
				<stop  offset="0.4588" style="stop-color:#44474C"/>
				<stop  offset="0.7373" style="stop-color:#1D1E20"/>
				<stop  offset="1" style="stop-color:#000000"/>
			</linearGradient>
			<path fill="url(#SVGID_17_)" d="M411.7,387.85c-0.667-0.166-1.3-0.8-1.9-1.898c-0.866-1.602-1.366-3.65-1.5-6.15
				c-0.166-2.5,0.066-4.717,0.7-6.648c0.634-2,1.483-3.135,2.55-3.4c0.066-0.033,0.15-0.066,0.25-0.1c0.233,0,0.45,0.033,0.65,0.1
				c0.7,0.135,1.35,0.75,1.95,1.85c0.865,1.567,1.383,3.602,1.55,6.102c0.166,2.5-0.084,4.75-0.75,6.75
				c-0.634,1.967-1.467,3.1-2.5,3.398C412.4,387.95,412.066,387.95,411.7,387.85z"/>
		</g>
		<g>
			
				<linearGradient id="SVGID_18_" gradientUnits="userSpaceOnUse" x1="314.2393" y1="69.4609" x2="321.1897" y2="70.6559" gradientTransform="matrix(1 0 0 -1 94 447)">
				<stop  offset="0" style="stop-color:#FFFFFF;stop-opacity:0"/>
				<stop  offset="0.2863" style="stop-color:#FFFFFF"/>
				<stop  offset="1" style="stop-color:#FFFFFF;stop-opacity:0"/>
			</linearGradient>
			<path fill="url(#SVGID_18_)" d="M412.75,370.6c-0.233-0.065-0.45-0.1-0.65-0.1c-0.1,0.033-0.198,0.066-0.3,0.1
				c-1.033,0.268-1.866,1.4-2.5,3.4c-0.633,1.934-0.883,4.15-0.75,6.65c0.102,1.466,0.316,2.8,0.65,4
				c-0.5-1.367-0.8-2.983-0.9-4.852c-0.166-2.5,0.066-4.717,0.7-6.648c0.634-2,1.483-3.135,2.55-3.4
				c0.066-0.033,0.15-0.066,0.25-0.1c0.233,0,0.45,0.033,0.65,0.1c0.7,0.134,1.35,0.75,1.95,1.85c0.398,0.668,0.698,1.4,0.898,2.2
				c-0.2-0.5-0.398-0.95-0.6-1.35C414.066,371.316,413.417,370.7,412.75,370.6z"/>
		</g>
		<g>
			
				<linearGradient id="SVGID_19_" gradientUnits="userSpaceOnUse" x1="242.6318" y1="128.8364" x2="300.8306" y2="128.6114" gradientTransform="matrix(1 0 0 -1 94 447)">
				<stop  offset="0.0039" style="stop-color:#3C3C3C"/>
				<stop  offset="1" style="stop-color:#7E8285"/>
			</linearGradient>
			<path fill="url(#SVGID_19_)" d="M363.6,277.95c8,0.065,15.052,4.05,21.15,11.95c6.033,7.966,9.35,17.5,9.95,28.6
				c0.033,0.5,0.065,1,0.1,1.5c0.102,4.2-0.232,8.167-1,11.9c-1.065,5.533-3.116,10.55-6.148,15.05
				c-0.367,0.532-0.733,1.05-1.102,1.55c-1.6,2.167-3.35,3.982-5.25,5.45c-3.967,3.133-8.517,4.684-13.648,4.649
				c-1.935-0.033-3.817-0.283-5.65-0.75c-0.5-0.134-1-0.283-1.5-0.449c-3.366-1.168-6.566-3.135-9.6-5.9
				c-1.5-1.434-2.95-3.05-4.352-4.85c-2.565-3.4-4.648-7.084-6.25-11.051c-2.033-5.199-3.2-10.899-3.5-17.101
				c-0.033-0.167-0.05-0.333-0.05-0.5c-0.634-11.101,1.65-20.583,6.85-28.45C348.934,281.783,355.6,277.917,363.6,277.95z"/>
		</g>
		<g>
			
				<radialGradient id="SVGID_20_" cx="255.7002" cy="129.6514" r="41.4868" gradientTransform="matrix(1 0 0 -1 94 447)" gradientUnits="userSpaceOnUse">
				<stop  offset="0" style="stop-color:#FFFFFF;stop-opacity:0.0941"/>
				<stop  offset="1" style="stop-color:#FFFFFF;stop-opacity:0"/>
			</radialGradient>
			<path fill="url(#SVGID_20_)" d="M352.75,280.75c-2.934,1.934-5.566,4.616-7.9,8.05c-5.232,7.867-7.532,17.367-6.898,28.5
				c0.033,0.4,0.065,0.8,0.1,1.2c0.334,5.9,1.5,11.35,3.5,16.35c0.066,0.268,0.167,0.518,0.3,0.75c1.534,3.7,3.5,7.135,5.9,10.301
				c1.4,1.834,2.866,3.449,4.4,4.851c2.633,2.467,5.416,4.283,8.35,5.45c0.5,0.199,1,0.365,1.5,0.5c2.2,0.732,4.5,1.115,6.9,1.148
				c3.966,0.034,7.565-0.883,10.8-2.75c-3.566,2.367-7.584,3.534-12.05,3.5c-1.935-0.033-3.817-0.283-5.65-0.75
				c-0.5-0.133-1-0.283-1.5-0.449c-3.366-1.166-6.566-3.133-9.6-5.899c-1.5-1.435-2.95-3.05-4.352-4.851
				c-2.565-3.399-4.648-7.084-6.25-11.051c-2.033-5.199-3.2-10.898-3.5-17.1c-0.033-0.167-0.05-0.333-0.05-0.5
				c-0.634-11.1,1.65-20.583,6.85-28.45C346.3,285.616,349.35,282.684,352.75,280.75z"/>
		</g>
		<g>
			
				<radialGradient id="SVGID_21_" cx="84.083" cy="163.0078" r="13.4508" gradientTransform="matrix(0.9656 -0.2602 -0.4963 -1.4181 349.7885 492.0834)" gradientUnits="userSpaceOnUse">
				<stop  offset="0" style="stop-color:#95989D"/>
				<stop  offset="0.8118" style="stop-color:#72757A"/>
				<stop  offset="0.9294" style="stop-color:#B3B6BB"/>
			</radialGradient>
			<path fill="url(#SVGID_21_)" d="M342.1,224.5c-0.1,0.066-0.183,0.133-0.25,0.2c-0.166,0.134-0.315,0.282-0.448,0.45h-0.052
				c-0.198,0.166-0.365,0.35-0.5,0.55c-0.065,0.065-0.115,0.116-0.148,0.149c-0.102,0.101-0.2,0.217-0.3,0.351
				c-0.102,0.167-0.218,0.315-0.352,0.45c-0.033,0.033-0.065,0.082-0.1,0.148c-0.167,0.167-0.3,0.352-0.4,0.551
				c-0.065,0.101-0.133,0.199-0.2,0.301c-0.065,0.133-0.133,0.25-0.198,0.35c-0.167,0.2-0.284,0.416-0.352,0.65
				c-0.065,0.065-0.116,0.148-0.148,0.25c-0.102,0.166-0.185,0.332-0.25,0.5c-0.102,0.267-0.2,0.517-0.302,0.75
				c-0.065,0.133-0.115,0.25-0.148,0.35c-0.066,0.167-0.117,0.35-0.15,0.55c-0.065,0.101-0.116,0.2-0.148,0.3
				c-0.067,0.2-0.102,0.385-0.102,0.551c-0.1,0.334-0.166,0.666-0.2,1c-0.032,0.066-0.05,0.134-0.05,0.199
				c-0.065,0.268-0.116,0.551-0.148,0.852c-0.034,0.365-0.067,0.767-0.102,1.199c-0.033,0.434-0.033,0.867,0,1.301
				c0,0.434,0.018,0.865,0.05,1.3c0,0.065,0.018,0.101,0.052,0.101c0,0.334,0.032,0.633,0.1,0.899c0.033,0.233,0.066,0.45,0.1,0.649
				c0,0.101,0.018,0.199,0.052,0.301c0.1,0.699,0.232,1.398,0.398,2.1c0.066,0.2,0.134,0.434,0.2,0.7
				c0.033,0.134,0.083,0.283,0.15,0.45c0.065,0.232,0.133,0.5,0.198,0.8c0.102,0.267,0.218,0.55,0.352,0.851
				c0.033,0.066,0.065,0.149,0.1,0.25c0.167,0.399,0.367,0.816,0.602,1.25c0.198,0.399,0.433,0.801,0.698,1.199
				c0.2,0.367,0.435,0.75,0.7,1.15c0.066,0.1,0.15,0.217,0.25,0.35c0.135,0.2,0.268,0.385,0.4,0.551
				c0.2,0.301,0.434,0.584,0.7,0.851l0.05,0.05c0.333,0.366,0.666,0.717,1,1.05c0.133,0.134,0.25,0.25,0.35,0.351
				c0.4,0.334,0.8,0.649,1.2,0.949c0.066,0.067,0.134,0.135,0.2,0.2c0.233,0.167,0.45,0.3,0.649,0.4
				c0.033,0.032,0.084,0.065,0.149,0.1c0.066,0.066,0.15,0.117,0.25,0.15c0.134,0.065,0.25,0.149,0.351,0.25
				c0.232,0.133,0.467,0.25,0.699,0.35c0.167,0.066,0.334,0.134,0.5,0.2c0.167,0.1,0.352,0.184,0.551,0.25
				c0.101,0.033,0.199,0.05,0.301,0.05c0.065,0,0.133,0.017,0.199,0.05c0.134,0.034,0.25,0.084,0.351,0.15
				c0.033,0,0.083,0.018,0.149,0.05c0.267,0.033,0.517,0.084,0.75,0.15c0.566,0.1,1.134,0.149,1.699,0.149h0.051
				c0.134,0,0.283,0,0.449,0c0.135,0,0.283,0,0.45,0c1,0.033,1.917-0.134,2.75-0.5c0.4-0.101,0.783-0.268,1.15-0.5
				c0.366-0.199,0.767-0.467,1.198-0.801c0.135-0.1,0.302-0.25,0.5-0.449c0.602-0.634,1.15-1.351,1.65-2.149
				c0.066-0.101,0.116-0.185,0.15-0.25c0.5-0.834,0.883-1.667,1.148-2.5c0-0.033,0.018-0.066,0.05-0.101
				c0.034-0.101,0.067-0.199,0.102-0.301c0.133-0.267,0.25-0.55,0.35-0.85c0.033-0.268,0.084-0.533,0.15-0.801
				c0-0.033,0.017-0.051,0.05-0.051c0.066-0.332,0.134-0.648,0.2-0.949c0.065-0.366,0.133-0.732,0.2-1.101
				c0.032-0.399,0.065-0.8,0.1-1.2c0-0.033,0-0.082,0-0.148c0-0.367,0-0.717,0-1.051c0-0.467-0.017-0.949-0.05-1.449
				c-0.033-0.301-0.066-0.617-0.102-0.95c-0.032-0.233-0.05-0.435-0.05-0.601c-0.033-0.066-0.05-0.116-0.05-0.149
				c-0.1-0.667-0.233-1.283-0.399-1.851c-0.101-0.566-0.233-1.116-0.399-1.649c-0.033-0.033-0.05-0.083-0.05-0.149
				c-0.067-0.134-0.117-0.283-0.15-0.449c-0.033-0.2-0.083-0.4-0.149-0.602c-0.066-0.199-0.134-0.383-0.199-0.55
				c-0.102-0.2-0.185-0.399-0.25-0.601c-0.067-0.166-0.117-0.316-0.15-0.449l-0.05-0.102c-0.101-0.232-0.2-0.449-0.3-0.648
				c-0.134-0.167-0.233-0.352-0.301-0.551c-0.101-0.166-0.199-0.334-0.301-0.5c-0.065-0.133-0.148-0.25-0.25-0.351
				c-0.032-0.065-0.065-0.133-0.1-0.2c-0.101-0.232-0.217-0.433-0.351-0.6c-0.166-0.2-0.301-0.383-0.399-0.55
				c-0.033,0-0.05-0.017-0.05-0.05c-0.134-0.168-0.268-0.334-0.4-0.5c-0.065-0.033-0.116-0.084-0.149-0.15
				c-0.066-0.133-0.166-0.268-0.301-0.4c-0.032,0-0.05-0.016-0.05-0.05c-0.167-0.167-0.315-0.333-0.45-0.5
				c-0.133-0.134-0.25-0.233-0.35-0.3c-0.101-0.066-0.167-0.133-0.2-0.2c-0.1-0.1-0.2-0.2-0.3-0.3c-0.233-0.2-0.467-0.416-0.7-0.65
				c-0.232-0.199-0.467-0.383-0.7-0.55c-0.133-0.134-0.25-0.233-0.35-0.3c-0.134-0.066-0.25-0.133-0.351-0.2h-0.051
				c-0.199-0.167-0.416-0.315-0.648-0.45c-0.167-0.065-0.317-0.133-0.45-0.199c-0.066-0.032-0.15-0.065-0.25-0.101
				c-0.2-0.134-0.417-0.233-0.65-0.3c-0.032-0.033-0.065-0.05-0.1-0.05c-0.2-0.067-0.434-0.134-0.7-0.2
				c-0.065-0.033-0.149-0.05-0.25-0.05c-0.134-0.034-0.267-0.067-0.399-0.101c-0.134-0.033-0.283-0.051-0.449-0.051
				c-0.067-0.033-0.15-0.05-0.25-0.05c-0.167-0.033-0.352-0.05-0.551-0.05c-0.066,0-0.116,0-0.149,0s-0.066,0-0.101,0
				c-0.166,0-0.351,0-0.551,0h-0.05c-0.167-0.034-0.35-0.051-0.55-0.051c-0.033,0-0.066,0-0.101,0h-0.051
				c-0.232,0-0.449,0.017-0.648,0.051c-0.034,0-0.067,0-0.102,0c-0.199,0-0.383,0.033-0.55,0.1c-0.065,0-0.116,0-0.149,0
				c-0.199,0.034-0.384,0.067-0.551,0.102c-0.032,0-0.065,0.016-0.1,0.05c-0.233,0.032-0.434,0.083-0.601,0.149
				c-0.033,0.032-0.066,0.051-0.101,0.051c-0.232,0.033-0.434,0.1-0.6,0.199c-0.268,0.065-0.483,0.166-0.65,0.301h-0.05
				c-0.2,0.1-0.384,0.199-0.55,0.3c-0.034,0-0.067,0.017-0.102,0.05c-0.166,0.1-0.315,0.217-0.449,0.35
				C342.283,224.416,342.2,224.467,342.1,224.5z M347.1,220.15c3.667,0.033,6.983,1.899,9.95,5.6c2.9,3.467,4.685,7.634,5.352,12.5
				c0.032,0.232,0.065,0.482,0.1,0.75c0.167,1.167,0.233,2.316,0.2,3.45c-0.033,3.7-0.884,6.967-2.55,9.8
				c-0.102,0.134-0.185,0.25-0.25,0.35c-0.167,0.268-0.317,0.5-0.45,0.7c-0.233,0.3-0.435,0.566-0.602,0.8
				c-0.166,0.2-0.333,0.367-0.5,0.5c-0.065,0.067-0.1,0.135-0.1,0.2c-0.9,0.9-1.866,1.584-2.9,2.05
				c-1.166,0.534-2.466,0.801-3.898,0.801c-2.7-0.033-5.233-1.051-7.602-3.051c-0.433-0.365-0.883-0.8-1.35-1.3
				c-0.366-0.366-0.733-0.782-1.1-1.25c-2-2.434-3.468-5.2-4.4-8.3c-0.066-0.3-0.134-0.566-0.2-0.8
				c-0.366-1.334-0.633-2.718-0.8-4.15c-0.066-0.366-0.116-0.717-0.15-1.05c-0.267-3.934,0.268-7.4,1.602-10.4
				c0.267-0.6,0.565-1.199,0.898-1.8C340.483,221.916,343.4,220.117,347.1,220.15z"/>
			
				<radialGradient id="SVGID_22_" cx="238.5635" cy="259.3662" r="14.5925" fx="239.193" fy="259.3662" gradientTransform="matrix(0.9975 -0.0703 -0.1071 -1.5203 134.8488 654.7827)" gradientUnits="userSpaceOnUse">
				<stop  offset="0" style="stop-color:#000000"/>
				<stop  offset="0.549" style="stop-color:#000000"/>
				<stop  offset="0.7804" style="stop-color:#141515"/>
				<stop  offset="1" style="stop-color:#4D4E51"/>
			</radialGradient>
			<path fill="url(#SVGID_22_)" d="M342.1,224.5c0.102-0.033,0.185-0.084,0.25-0.15c0.135-0.133,0.284-0.25,0.45-0.35
				c0.033-0.033,0.066-0.05,0.102-0.05c0.166-0.101,0.35-0.2,0.55-0.3h0.05c0.167-0.135,0.384-0.234,0.65-0.301
				c0.166-0.101,0.365-0.166,0.6-0.199c0.033,0,0.066-0.019,0.1-0.051c0.167-0.066,0.367-0.117,0.602-0.149
				c0.033-0.034,0.065-0.05,0.1-0.05c0.167-0.033,0.352-0.066,0.55-0.102c0.034,0,0.084,0,0.15,0c0.167-0.066,0.35-0.1,0.55-0.1
				c0.033,0,0.066,0,0.102,0c0.198-0.034,0.416-0.051,0.648-0.051h0.05c0.034,0,0.067,0,0.102,0c0.2,0,0.383,0.017,0.55,0.051h0.05
				c0.2,0,0.384,0,0.55,0c0.034,0,0.067,0,0.102,0s0.083,0,0.148,0c0.2,0,0.385,0.017,0.552,0.05c0.1,0,0.183,0.017,0.25,0.05
				c0.166,0,0.315,0.018,0.448,0.051c0.135,0.032,0.268,0.065,0.4,0.101c0.1,0,0.184,0.017,0.25,0.05c0.267,0.066,0.5,0.133,0.7,0.2
				c0.033,0,0.065,0.017,0.1,0.05c0.233,0.066,0.45,0.166,0.65,0.3c0.1,0.034,0.184,0.067,0.25,0.101
				c0.133,0.066,0.283,0.134,0.45,0.199c0.232,0.135,0.448,0.283,0.648,0.45h0.05c0.102,0.067,0.218,0.134,0.352,0.2
				c0.1,0.066,0.217,0.166,0.35,0.3c0.233,0.167,0.467,0.351,0.7,0.55c0.233,0.234,0.467,0.45,0.7,0.65c0.1,0.1,0.2,0.2,0.3,0.3
				c0.033,0.067,0.1,0.134,0.2,0.2c0.1,0.066,0.217,0.166,0.35,0.3c0.135,0.167,0.283,0.333,0.45,0.5c0,0.034,0.017,0.05,0.05,0.05
				c0.135,0.135,0.233,0.269,0.3,0.4c0.034,0.066,0.085,0.117,0.15,0.15c0.134,0.166,0.267,0.332,0.4,0.5
				c0,0.033,0.017,0.05,0.05,0.05c0.1,0.167,0.232,0.35,0.398,0.55c0.135,0.167,0.25,0.366,0.352,0.6
				c0.033,0.067,0.065,0.135,0.1,0.2c0.102,0.101,0.185,0.218,0.25,0.351c0.102,0.166,0.2,0.334,0.3,0.5
				c0.067,0.199,0.167,0.384,0.302,0.551c0.1,0.199,0.198,0.416,0.3,0.648l0.05,0.102c0.033,0.133,0.083,0.283,0.15,0.449
				c0.065,0.199,0.148,0.399,0.25,0.601c0.065,0.167,0.133,0.351,0.198,0.55c0.067,0.2,0.117,0.4,0.15,0.602
				c0.033,0.166,0.083,0.315,0.15,0.449c0,0.066,0.017,0.116,0.05,0.149c0.166,0.533,0.3,1.083,0.398,1.649
				c0.167,0.566,0.302,1.184,0.4,1.851c0,0.033,0.017,0.083,0.05,0.149c0,0.166,0.018,0.367,0.05,0.601
				c0.034,0.333,0.067,0.649,0.102,0.95c0.033,0.5,0.05,0.982,0.05,1.449c0,0.334,0,0.684,0,1.051c0,0.066,0,0.115,0,0.148
				c-0.033,0.4-0.066,0.801-0.1,1.2c-0.067,0.367-0.135,0.733-0.2,1.101c-0.066,0.301-0.135,0.617-0.2,0.949
				c-0.033,0-0.05,0.018-0.05,0.051c-0.066,0.268-0.117,0.533-0.15,0.801c-0.1,0.3-0.217,0.583-0.35,0.85
				c-0.033,0.102-0.066,0.2-0.102,0.301c-0.033,0.033-0.05,0.066-0.05,0.101c-0.267,0.833-0.648,1.666-1.148,2.5
				c-0.034,0.065-0.085,0.149-0.15,0.25c-0.5,0.8-1.05,1.517-1.65,2.149c-0.198,0.199-0.365,0.351-0.5,0.449
				c-0.433,0.334-0.833,0.602-1.198,0.801c-0.367,0.232-0.75,0.399-1.15,0.5c-0.833,0.366-1.75,0.533-2.75,0.5
				c-0.167,0-0.316,0-0.45,0c-0.166,0-0.315,0-0.45,0h-0.05c-0.565,0-1.133-0.051-1.7-0.149c-0.232-0.066-0.482-0.117-0.75-0.15
				c-0.065-0.032-0.115-0.05-0.148-0.05c-0.102-0.066-0.217-0.116-0.352-0.15c-0.065-0.033-0.133-0.05-0.198-0.05
				c-0.102,0-0.2-0.017-0.302-0.05c-0.198-0.066-0.383-0.15-0.55-0.25c-0.166-0.066-0.333-0.134-0.5-0.2
				c-0.232-0.1-0.467-0.217-0.7-0.35c-0.1-0.101-0.216-0.185-0.35-0.25c-0.1-0.033-0.184-0.084-0.25-0.15
				c-0.066-0.032-0.116-0.065-0.15-0.1c-0.198-0.101-0.416-0.233-0.648-0.4c-0.066-0.065-0.134-0.133-0.2-0.2
				c-0.4-0.3-0.8-0.615-1.2-0.949c-0.1-0.101-0.217-0.217-0.35-0.351c-0.334-0.333-0.667-0.684-1-1.05l-0.05-0.05
				c-0.268-0.267-0.5-0.55-0.7-0.851c-0.134-0.166-0.268-0.351-0.4-0.551c-0.1-0.133-0.184-0.25-0.25-0.35
				c-0.267-0.4-0.5-0.783-0.7-1.15c-0.267-0.398-0.5-0.8-0.698-1.199c-0.233-0.434-0.435-0.851-0.602-1.25
				c-0.033-0.101-0.065-0.184-0.1-0.25c-0.135-0.301-0.25-0.584-0.352-0.851c-0.065-0.3-0.133-0.565-0.199-0.8
				c-0.066-0.167-0.116-0.316-0.149-0.45c-0.066-0.267-0.134-0.5-0.2-0.7c-0.166-0.699-0.3-1.398-0.398-2.1
				c-0.034-0.102-0.052-0.2-0.052-0.301c-0.032-0.199-0.065-0.416-0.1-0.649c-0.066-0.267-0.101-0.565-0.101-0.899
				c-0.033,0-0.051-0.033-0.051-0.101c-0.033-0.435-0.05-0.866-0.05-1.3c-0.033-0.434-0.033-0.867,0-1.301s0.066-0.834,0.102-1.199
				c0.032-0.301,0.083-0.584,0.148-0.852c0-0.065,0.017-0.133,0.05-0.199c0.034-0.334,0.102-0.666,0.2-1
				c0-0.166,0.033-0.351,0.102-0.551c0.032-0.1,0.083-0.199,0.148-0.3c0.033-0.2,0.084-0.383,0.15-0.55
				c0.032-0.1,0.083-0.217,0.148-0.35c0.102-0.233,0.2-0.483,0.301-0.75c0.066-0.168,0.149-0.334,0.25-0.5
				c0.033-0.102,0.083-0.185,0.149-0.25c0.066-0.234,0.184-0.45,0.351-0.65c0.066-0.1,0.134-0.217,0.199-0.35
				c0.067-0.102,0.134-0.2,0.2-0.301c0.102-0.199,0.233-0.384,0.4-0.551c0.032-0.066,0.065-0.115,0.1-0.148
				c0.134-0.135,0.25-0.283,0.352-0.45c0.1-0.134,0.198-0.25,0.3-0.351c0.032-0.033,0.083-0.084,0.148-0.149
				c0.134-0.2,0.301-0.384,0.5-0.55h0.051c0.134-0.168,0.283-0.316,0.449-0.45C341.917,224.633,342,224.566,342.1,224.5z"/>
			
				<linearGradient id="SVGID_23_" gradientUnits="userSpaceOnUse" x1="-832.5747" y1="426.5879" x2="-804.9025" y2="426.5879" gradientTransform="matrix(-0.4544 -0.8908 -0.9291 0.3794 376.4901 -646.4761)">
				<stop  offset="0" style="stop-color:#6C7274"/>
				<stop  offset="1" style="stop-color:#292C2D"/>
			</linearGradient>
			<path fill="url(#SVGID_23_)" d="M346.95,219.35c-3.8-0.033-6.834,1.851-9.102,5.65c-0.198,0.334-0.365,0.666-0.5,1
				c-1.666,3.333-2.333,7.25-2,11.75c0.034,0.333,0.084,0.684,0.15,1.05c0.1,1.435,0.35,2.816,0.75,4.15
				c0.033,0.233,0.1,0.5,0.2,0.8c0.967,3.3,2.482,6.25,4.55,8.85c0.233,0.268,0.467,0.5,0.7,0.7c0.398,0.5,0.8,0.935,1.2,1.3
				c2.666,2.534,5.532,3.817,8.6,3.852c2.033,0,3.833-0.533,5.4-1.602c0.466-0.3,0.916-0.666,1.35-1.1
				c0.366-0.366,0.717-0.75,1.05-1.15c0.134-0.133,0.268-0.3,0.4-0.5c0.065-0.133,0.148-0.25,0.25-0.35
				c0.1-0.134,0.2-0.283,0.3-0.45c0.1-0.133,0.217-0.315,0.35-0.55c1.733-2.934,2.617-6.366,2.65-10.3
				c0-1.134-0.083-2.283-0.25-3.45c0-0.268-0.017-0.518-0.05-0.75c-0.733-5.1-2.566-9.467-5.5-13.1
				C354.283,221.316,350.783,219.383,346.95,219.35z M346.95,219.15c3.866,0,7.383,1.949,10.55,5.85
				c3.033,3.666,4.9,8.083,5.6,13.25c0.034,0.232,0.067,0.482,0.102,0.75c0.166,1.167,0.232,2.316,0.2,3.45
				c0.032,4-0.852,7.5-2.65,10.5c-0.1,0.133-0.184,0.25-0.25,0.35c-0.167,0.3-0.333,0.55-0.5,0.75v0.05
				c-0.167,0.2-0.316,0.367-0.45,0.5c-0.398,0.534-0.833,1.018-1.3,1.45c-0.3,0.3-0.6,0.566-0.9,0.8
				c-1.698,1.233-3.648,1.834-5.85,1.801c-3.167-0.033-6.134-1.383-8.9-4.051c-0.398-0.365-0.8-0.8-1.198-1.3
				c-0.167-0.133-0.334-0.3-0.5-0.5c-2.167-2.666-3.718-5.684-4.65-9.05c-0.1-0.3-0.167-0.566-0.2-0.8
				c-0.333-1.334-0.583-2.733-0.75-4.2c-0.065-0.333-0.116-0.667-0.148-1c-0.4-4.667,0.315-8.732,2.148-12.2
				c0.167-0.267,0.3-0.517,0.4-0.75C340,221,343.083,219.117,346.95,219.15z"/>
			<path fill="#12171A" d="M347.1,220.15c-3.698-0.033-6.615,1.766-8.75,5.399c-0.333,0.602-0.633,1.2-0.898,1.801
				c-1.334,3-1.867,6.467-1.602,10.399c0.034,0.333,0.084,0.685,0.15,1.05c0.167,1.434,0.434,2.816,0.8,4.15
				c0.066,0.232,0.134,0.5,0.2,0.8c0.934,3.101,2.4,5.866,4.4,8.3c0.365,0.467,0.732,0.885,1.1,1.25
				c0.467,0.5,0.917,0.934,1.35,1.301c2.367,2,4.9,3.017,7.602,3.051c1.434,0,2.732-0.268,3.898-0.801
				c1.034-0.467,2-1.149,2.9-2.051c0-0.066,0.033-0.133,0.1-0.199c0.167-0.134,0.334-0.301,0.5-0.5
				c0.167-0.233,0.367-0.5,0.602-0.801c0.133-0.199,0.283-0.434,0.45-0.699c0.065-0.101,0.148-0.217,0.25-0.351
				c1.666-2.833,2.517-6.101,2.55-9.8c0.033-1.135-0.033-2.283-0.2-3.45c-0.033-0.267-0.066-0.517-0.1-0.75
				c-0.667-4.866-2.45-9.033-5.352-12.5C354.083,222.05,350.767,220.184,347.1,220.15z M346.95,219.35
				c3.833,0.033,7.333,1.967,10.5,5.8c2.934,3.634,4.767,8,5.5,13.101c0.033,0.233,0.05,0.483,0.05,0.75
				c0.167,1.167,0.25,2.315,0.25,3.45c-0.033,3.934-0.917,7.365-2.65,10.3c-0.133,0.233-0.25,0.417-0.35,0.55
				c-0.1,0.167-0.2,0.316-0.3,0.45c-0.102,0.101-0.185,0.217-0.25,0.351c-0.134,0.199-0.268,0.366-0.4,0.5
				c-0.333,0.399-0.684,0.783-1.05,1.149c-0.434,0.435-0.884,0.8-1.35,1.101c-1.567,1.066-3.367,1.601-5.4,1.601
				c-3.066-0.033-5.934-1.316-8.6-3.851c-0.4-0.367-0.802-0.801-1.2-1.301c-0.233-0.199-0.467-0.434-0.7-0.699
				c-2.066-2.601-3.583-5.551-4.55-8.851c-0.102-0.3-0.167-0.565-0.2-0.8c-0.4-1.334-0.65-2.717-0.75-4.15
				c-0.066-0.365-0.116-0.717-0.15-1.05c-0.333-4.5,0.334-8.417,2-11.75c0.135-0.334,0.302-0.666,0.5-1
				C340.116,221.2,343.15,219.316,346.95,219.35z"/>
		</g>
		
			<radialGradient id="SVGID_24_" cx="-139.501" cy="627.6826" r="5.6306" gradientTransform="matrix(0.9128 -0.1797 -0.3511 -1.8855 684.2643 1399.4683)" gradientUnits="userSpaceOnUse">
			<stop  offset="0" style="stop-color:#FFFFFF;stop-opacity:0.451"/>
			<stop  offset="0.149" style="stop-color:#FFFFFF;stop-opacity:0.3569"/>
			<stop  offset="0.3255" style="stop-color:#FFFFFF;stop-opacity:0.2314"/>
			<stop  offset="0.5843" style="stop-color:#FFFFFF;stop-opacity:0.0667"/>
			<stop  offset="0.7373" style="stop-color:#FFFFFF;stop-opacity:0"/>
			<stop  offset="1" style="stop-color:#FFFFFF;stop-opacity:0"/>
		</radialGradient>
		<path fill="url(#SVGID_24_)" d="M334.782,231.548c1.304-0.248,2.559,0.449,3.769,2.093c1.24,1.676,2.108,3.83,2.604,6.467
			c0.466,2.636,0.419,4.945-0.141,6.931c-0.526,2.047-1.44,3.194-2.743,3.442c-1.271,0.248-2.527-0.465-3.769-2.141
			c-1.209-1.644-2.047-3.783-2.513-6.419c-0.496-2.636-0.48-4.962,0.047-6.978C332.597,232.928,333.511,231.796,334.782,231.548z"/>
		
			<radialGradient id="SVGID_25_" cx="1276.3262" cy="355.4746" r="6.8495" gradientTransform="matrix(0.0393 0.1991 0.5125 -0.0953 121.662 37.6476)" gradientUnits="userSpaceOnUse">
			<stop  offset="0" style="stop-color:#FFFFFF;stop-opacity:0.451"/>
			<stop  offset="0.149" style="stop-color:#FFFFFF;stop-opacity:0.3529"/>
			<stop  offset="0.3255" style="stop-color:#FFFFFF;stop-opacity:0.2314"/>
			<stop  offset="0.5843" style="stop-color:#FFFFFF;stop-opacity:0.0667"/>
			<stop  offset="0.7373" style="stop-color:#FFFFFF;stop-opacity:0"/>
			<stop  offset="1" style="stop-color:#FFFFFF;stop-opacity:0"/>
		</radialGradient>
		<path fill="url(#SVGID_25_)" d="M357.152,257.326c0.066,0.338-0.176,0.68-0.729,1.021c-0.566,0.354-1.287,0.611-2.158,0.773
			s-1.63,0.18-2.273,0.052c-0.661-0.118-1.024-0.346-1.092-0.685c-0.066-0.34,0.184-0.686,0.752-1.038
			c0.552-0.345,1.264-0.597,2.135-0.759c0.871-0.161,1.637-0.185,2.298-0.065C356.73,256.754,357.086,256.986,357.152,257.326z"/>
		
			<radialGradient id="SVGID_26_" cx="1276.3281" cy="355.4746" r="6.8483" gradientTransform="matrix(0.0393 0.1991 0.5125 -0.0953 136.162 156.7971)" gradientUnits="userSpaceOnUse">
			<stop  offset="0" style="stop-color:#FFFFFF;stop-opacity:0.451"/>
			<stop  offset="0.149" style="stop-color:#FFFFFF;stop-opacity:0.349"/>
			<stop  offset="0.3255" style="stop-color:#FFFFFF;stop-opacity:0.2314"/>
			<stop  offset="0.5843" style="stop-color:#FFFFFF;stop-opacity:0.0667"/>
			<stop  offset="0.7373" style="stop-color:#FFFFFF;stop-opacity:0"/>
			<stop  offset="1" style="stop-color:#FFFFFF;stop-opacity:0"/>
		</radialGradient>
		<path fill="url(#SVGID_26_)" d="M371.652,376.477c0.066,0.338-0.176,0.68-0.729,1.022c-0.566,0.354-1.287,0.61-2.158,0.772
			s-1.63,0.18-2.273,0.052c-0.661-0.117-1.024-0.347-1.092-0.685c-0.066-0.339,0.184-0.686,0.752-1.037
			c0.552-0.345,1.264-0.598,2.135-0.76s1.637-0.184,2.298-0.066C371.23,375.904,371.586,376.139,371.652,376.477z"/>
		
			<radialGradient id="SVGID_27_" cx="-285.4219" cy="568.2109" r="6.8511" gradientTransform="matrix(-0.2 -0.0347 -0.0947 0.5126 405.7063 73.2419)" gradientUnits="userSpaceOnUse">
			<stop  offset="0" style="stop-color:#FFFFFF;stop-opacity:0.451"/>
			<stop  offset="0.149" style="stop-color:#FFFFFF;stop-opacity:0.3451"/>
			<stop  offset="0.3255" style="stop-color:#FFFFFF;stop-opacity:0.2314"/>
			<stop  offset="0.5843" style="stop-color:#FFFFFF;stop-opacity:0.0667"/>
			<stop  offset="0.7373" style="stop-color:#FFFFFF;stop-opacity:0"/>
			<stop  offset="1" style="stop-color:#FFFFFF;stop-opacity:0"/>
		</radialGradient>
		<path fill="url(#SVGID_27_)" d="M408.422,377.557c-0.34-0.06-0.571-0.408-0.694-1.047c-0.126-0.656-0.107-1.421,0.053-2.292
			c0.161-0.87,0.417-1.586,0.768-2.142c0.347-0.575,0.69-0.833,1.03-0.773c0.34,0.059,0.573,0.418,0.699,1.073
			c0.123,0.64,0.104,1.394-0.058,2.265c-0.161,0.873-0.415,1.594-0.763,2.17C409.107,377.366,408.762,377.614,408.422,377.557z"/>
		<g>
			
				<radialGradient id="SVGID_28_" cx="170.1094" cy="108.2783" r="15.0503" gradientTransform="matrix(1 0 -0.1678 -1.5515 177.4701 568.7461)" gradientUnits="userSpaceOnUse">
				<stop  offset="0" style="stop-color:#FFFFFF;stop-opacity:0.5216"/>
				<stop  offset="0.5216" style="stop-color:#FFFFFF;stop-opacity:0.2471"/>
				<stop  offset="1" style="stop-color:#FFFFFF;stop-opacity:0"/>
			</radialGradient>
			<path fill="url(#SVGID_28_)" d="M339.55,401.8c-1.467,2.5-3.467,3.75-6,3.75c-2.5,0-4.783-1.25-6.85-3.75
				c-2.033-2.467-3.233-5.467-3.602-9c-0.398-3.5,0.167-6.5,1.7-9c1.467-2.5,3.467-3.75,6-3.75c2.5,0,4.783,1.25,6.852,3.75
				c2.065,2.5,3.3,5.5,3.698,9C341.717,396.333,341.116,399.333,339.55,401.8z"/>
		</g>
		
			<radialGradient id="SVGID_29_" cx="368.9297" cy="114.9082" r="20.7751" gradientTransform="matrix(0.9303 0 -0.1555 -1.4443 1.3289 558.892)" gradientUnits="userSpaceOnUse">
			<stop  offset="0" style="stop-color:#63666B"/>
			<stop  offset="0.3137" style="stop-color:#434548"/>
			<stop  offset="0.4471" style="stop-color:#14171C"/>
			<stop  offset="0.7216" style="stop-color:#000000"/>
			<stop  offset="0.8549" style="stop-color:#4B4C4D"/>
		</radialGradient>
		<path fill="url(#SVGID_29_)" d="M331.471,378.939c2.513,0,4.785,1.238,6.82,3.718c2.067,2.508,3.291,5.517,3.669,9.028
			c0.378,3.51-0.199,6.505-1.729,8.982c-1.498,2.508-3.503,3.762-6.016,3.762s-4.803-1.254-6.871-3.762
			c-2.034-2.479-3.239-5.475-3.618-8.982c-0.379-3.513,0.183-6.521,1.68-9.028C326.938,380.18,328.959,378.939,331.471,378.939z"/>
		<g>
			
				<linearGradient id="SVGID_30_" gradientUnits="userSpaceOnUse" x1="201.5464" y1="54.9751" x2="209.5464" y2="54.9751" gradientTransform="matrix(1 0 -0.0521 -1 127.8649 447)">
				<stop  offset="0" style="stop-color:#63666B"/>
				<stop  offset="0.9922" style="stop-color:#000000"/>
			</linearGradient>
			<path fill="url(#SVGID_30_)" d="M334.55,392.05c0.167,1.733-0.116,3.2-0.85,4.4c-0.634,1.2-1.5,1.8-2.602,1.8
				c-1.1,0-2.1-0.6-3-1.8c-0.865-1.2-1.383-2.667-1.55-4.4c-0.2-1.733,0.05-3.217,0.75-4.45c0.667-1.199,1.566-1.8,2.7-1.8
				c1.066,0,2.033,0.601,2.9,1.8C333.8,388.833,334.35,390.316,334.55,392.05z M332.55,392.05c-0.133-1.1-0.467-2.032-1-2.8
				c-0.467-0.7-1-1.083-1.6-1.15c-0.102,0-0.2,0-0.3,0c-0.7,0-1.268,0.385-1.7,1.15c-0.434,0.766-0.584,1.7-0.45,2.8
				c0.066,1.101,0.384,2.017,0.95,2.75c0.6,0.8,1.25,1.2,1.95,1.2c0.1,0,0.198,0,0.3,0c0.533-0.1,0.982-0.5,1.35-1.2
				C332.483,394.066,332.65,393.15,332.55,392.05z"/>
			<path d="M332.55,392.05c0.102,1.101-0.065,2.017-0.5,2.75c-0.366,0.7-0.815,1.101-1.35,1.2c-0.102,0-0.2,0-0.3,0
				c-0.7,0-1.352-0.4-1.95-1.2c-0.566-0.733-0.884-1.649-0.95-2.75c-0.134-1.1,0.017-2.032,0.45-2.8c0.433-0.768,1-1.15,1.7-1.15
				c0.1,0,0.198,0,0.3,0c0.6,0.067,1.133,0.45,1.6,1.15C332.083,390.018,332.417,390.95,332.55,392.05z"/>
		</g>
		<g>
			
				<radialGradient id="SVGID_31_" cx="123.501" cy="87.7827" r="9.6582" gradientTransform="matrix(0.9966 -0.0828 -0.2964 -1.5466 238.1046 534.5436)" gradientUnits="userSpaceOnUse">
				<stop  offset="0" style="stop-color:#000000"/>
				<stop  offset="0.5686" style="stop-color:#010102"/>
				<stop  offset="0.8118" style="stop-color:#303031;stop-opacity:0"/>
				<stop  offset="1" style="stop-color:#4B4C4D;stop-opacity:0"/>
			</radialGradient>
			<path fill="url(#SVGID_31_)" d="M331.4,378.95c-2.302,0-4.167,1.032-5.602,3.1c0.2-0.434,0.417-0.866,0.65-1.3
				c1.533-2.5,3.55-3.75,6.05-3.75s4.783,1.25,6.85,3.75c2.034,2.5,3.25,5.5,3.65,9c0.366,3.5-0.217,6.5-1.75,9
				c-0.1,0.2-0.217,0.4-0.35,0.6c0.966-2.198,1.3-4.75,1-7.648c-0.367-3.5-1.585-6.5-3.65-9
				C336.183,380.201,333.9,378.95,331.4,378.95z"/>
		</g>
		
			<radialGradient id="SVGID_32_" cx="742.1221" cy="89.917" r="6.8568" gradientTransform="matrix(0.3097 0.1131 0.261 -0.8153 86.1931 386.9409)" gradientUnits="userSpaceOnUse">
			<stop  offset="0" style="stop-color:#FFFFFF;stop-opacity:0.451"/>
			<stop  offset="0.149" style="stop-color:#FFFFFF;stop-opacity:0.3608"/>
			<stop  offset="0.3255" style="stop-color:#FFFFFF;stop-opacity:0.2314"/>
			<stop  offset="0.5843" style="stop-color:#FFFFFF;stop-opacity:0.0667"/>
			<stop  offset="0.7373" style="stop-color:#FFFFFF;stop-opacity:0"/>
			<stop  offset="1" style="stop-color:#FFFFFF;stop-opacity:0"/>
		</radialGradient>
		<path fill="url(#SVGID_32_)" d="M341.084,392.59c0.527,0.192,0.818,0.83,0.875,1.913c0.059,1.114-0.134,2.364-0.578,3.75
			c-0.442,1.387-1.003,2.487-1.68,3.303c-0.674,0.848-1.275,1.175-1.802,0.981c-0.527-0.193-0.818-0.846-0.877-1.96
			c-0.058-1.083,0.137-2.317,0.58-3.704s1.003-2.502,1.678-3.348C339.956,392.709,340.558,392.396,341.084,392.59z"/>
		
			<radialGradient id="SVGID_33_" cx="454.6064" cy="475.6787" r="6.8436" gradientTransform="matrix(-0.2456 0.1989 0.5616 0.6935 172.9302 -20.5159)" gradientUnits="userSpaceOnUse">
			<stop  offset="0" style="stop-color:#FFFFFF;stop-opacity:0.451"/>
			<stop  offset="0.149" style="stop-color:#FFFFFF;stop-opacity:0.3569"/>
			<stop  offset="0.3255" style="stop-color:#FFFFFF;stop-opacity:0.2314"/>
			<stop  offset="0.5843" style="stop-color:#FFFFFF;stop-opacity:0.0667"/>
			<stop  offset="0.7373" style="stop-color:#FFFFFF;stop-opacity:0"/>
			<stop  offset="1" style="stop-color:#FFFFFF;stop-opacity:0"/>
		</radialGradient>
		<path fill="url(#SVGID_33_)" d="M331.809,404.049c-0.418,0.339-1.098,0.22-2.039-0.357c-0.969-0.594-1.931-1.479-2.885-2.657
			c-0.955-1.181-1.613-2.293-1.973-3.34c-0.388-1.064-0.373-1.768,0.044-2.104c0.418-0.338,1.111-0.21,2.08,0.385
			c0.94,0.575,1.89,1.453,2.845,2.633s1.626,2.3,2.014,3.363C332.255,403.018,332.227,403.711,331.809,404.049z"/>
		
			<radialGradient id="SVGID_34_" cx="-63.3296" cy="602.6836" r="3.7932" gradientTransform="matrix(0.9209 -0.132 0.7981 -3.1772 -82.4089 2206.3584)" gradientUnits="userSpaceOnUse">
			<stop  offset="0" style="stop-color:#FFFFFF;stop-opacity:0.451"/>
			<stop  offset="0.149" style="stop-color:#FFFFFF;stop-opacity:0.3569"/>
			<stop  offset="0.3255" style="stop-color:#FFFFFF;stop-opacity:0.2314"/>
			<stop  offset="0.5843" style="stop-color:#FFFFFF;stop-opacity:0.0667"/>
			<stop  offset="0.7373" style="stop-color:#FFFFFF;stop-opacity:0"/>
			<stop  offset="1" style="stop-color:#FFFFFF;stop-opacity:0"/>
		</radialGradient>
		<path fill="url(#SVGID_34_)" d="M340.598,297.787c-1.179,3.35-2.001,6.326-2.466,8.932c-0.465,2.604-0.697,4.016-0.697,4.232
			c-0.743,1.023-0.683-0.791,0.187-5.442c0.931-5.116,2.419-9.582,4.466-13.396c2.016-3.846,2.56-4.698,1.628-2.559
			C342.784,291.693,341.744,294.438,340.598,297.787z"/>
	</g>
</g>
</svg>
